<svg width="24" height="23" viewBox="0 0 24 23" fill="none" xmlns="http://www.w3.org/2000/svg">
<path d="M23.7072 0.971149C23.5197 0.801018 23.2654 0.705444 23.0002 0.705444C22.735 0.705444 22.4807 0.801018 22.2932 0.971149L12 10.3121L1.70682 0.971149C1.51929 0.801018 1.26497 0.705444 0.999804 0.705444C0.734635 0.705444 0.480323 0.801018 0.292792 0.971149C0.105317 1.14133 0 1.37212 0 1.61275C0 1.85339 0.105317 2.08418 0.292792 2.25436L10.586 11.5953L0.292792 20.9362C0.105317 21.1064 0 21.3372 0 21.5778C0 21.8185 0.105317 22.0493 0.292792 22.2194C0.480323 22.3896 0.734635 22.4851 0.999804 22.4851C1.26497 22.4851 1.51929 22.3896 1.70682 22.2194L12 12.8785L22.2932 22.2194C22.4807 22.3896 22.735 22.4851 23.0002 22.4851C23.2654 22.4851 23.5197 22.3896 23.7072 22.2194C23.8947 22.0493 24 21.8185 24 21.5778C24 21.3372 23.8947 21.1064 23.7072 20.9362L13.414 11.5953L23.7072 2.25436C23.8947 2.08418 24 1.85339 24 1.61275C24 1.37212 23.8947 1.14133 23.7072 0.971149Z" fill="white"/>
</svg>
