<svg width="43" height="43" viewBox="0 0 43 43" fill="none" xmlns="http://www.w3.org/2000/svg">
<path d="M30.4583 3.58337H12.5417C7.59411 3.58337 3.58333 7.59416 3.58333 12.5417V30.4584C3.58333 35.4059 7.59411 39.4167 12.5417 39.4167H30.4583C35.4059 39.4167 39.4167 35.4059 39.4167 30.4584V12.5417C39.4167 7.59416 35.4059 3.58337 30.4583 3.58337Z" stroke="white" stroke-width="3" stroke-linecap="round" stroke-linejoin="round"/>
<path d="M28.6667 20.3713C28.8878 21.8624 28.6331 23.3853 27.9388 24.7233C27.2445 26.0613 26.1461 27.1463 24.7996 27.8241C23.4531 28.5018 21.9272 28.7377 20.4389 28.4982C18.9507 28.2587 17.5758 27.556 16.5099 26.4901C15.444 25.4242 14.7414 24.0494 14.5019 22.5611C14.2624 21.0728 14.4983 19.5469 15.176 18.2005C15.8537 16.854 16.9387 15.7555 18.2768 15.0612C19.6148 14.367 21.1376 14.1123 22.6287 14.3334C24.1497 14.5589 25.5579 15.2677 26.6451 16.3549C27.7324 17.4422 28.4411 18.8503 28.6667 20.3713Z" stroke="white" stroke-width="3" stroke-linecap="round" stroke-linejoin="round"/>
<path d="M31.3542 11.6459H31.3721" stroke="white" stroke-width="3" stroke-linecap="round" stroke-linejoin="round"/>
</svg>
