<svg width="123" height="50" viewBox="0 0 123 50" fill="none" xmlns="http://www.w3.org/2000/svg">
<rect x="0.472747" y="0.472747" width="121.969" height="42.5472" rx="4.25472" fill="#99C6A1" stroke="white" stroke-width="0.945494"/>
<g filter="url(#filter0_d_1278_493)">
<path d="M22.0049 11.5965V11.4931C22.0049 11.2026 22.032 10.8973 22.0862 10.5772C22.1453 10.2522 22.2265 9.92961 22.3299 9.60952C22.4333 9.28943 22.5589 8.97919 22.7066 8.6788C22.8544 8.37841 23.0218 8.10264 23.2089 7.85149C23.4158 7.58065 23.6472 7.33935 23.9033 7.1276C24.1643 6.91092 24.4425 6.72625 24.738 6.5736C25.0384 6.42094 25.356 6.30521 25.6909 6.22642C26.0257 6.14271 26.3729 6.10085 26.7324 6.10085C27.0328 6.10085 27.343 6.1304 27.6631 6.18949C27.9832 6.24366 28.2787 6.32737 28.5495 6.44064C28.7711 6.54405 28.9705 6.66962 29.1478 6.81736C29.33 6.96017 29.5221 7.10298 29.724 7.24578C29.7437 7.27041 29.7634 7.28518 29.7831 7.2901C29.8077 7.29503 29.8299 7.29749 29.8496 7.29749C29.8939 7.29749 29.9333 7.26548 29.9677 7.20146C30.0219 7.1079 30.0712 6.98971 30.1155 6.8469C30.1598 6.69917 30.209 6.5736 30.2632 6.47018C30.2829 6.42586 30.3051 6.40124 30.3297 6.39632C30.3543 6.38647 30.3814 6.38154 30.4109 6.38154C30.4454 6.38154 30.47 6.39385 30.4848 6.41848C30.5045 6.4431 30.5144 6.46033 30.5144 6.47018C30.5538 6.64254 30.5759 6.81489 30.5808 6.98725C30.5907 7.15961 30.5956 7.33935 30.5956 7.52648V7.95491C30.5956 8.01892 30.5956 8.08294 30.5956 8.14696C30.5956 8.21098 30.5981 8.27746 30.603 8.3464C30.6227 8.53353 30.6473 8.69603 30.6769 8.83392C30.7064 8.9718 30.7212 9.10476 30.7212 9.2328C30.7212 9.30667 30.7089 9.38546 30.6843 9.46917C30.6646 9.54796 30.6202 9.58736 30.5513 9.58736C30.5217 9.58736 30.4799 9.55043 30.4257 9.47656C30.3765 9.40269 30.3248 9.32144 30.2706 9.2328C30.2164 9.13924 30.1623 9.04813 30.1081 8.95949C30.0588 8.87085 30.0244 8.81176 30.0047 8.78221C29.8668 8.58523 29.7338 8.39811 29.6058 8.22083C29.4827 8.04355 29.3546 7.87858 29.2217 7.72592C29.0937 7.56834 28.9558 7.42553 28.808 7.29749C28.6652 7.16453 28.5052 7.04634 28.3279 6.94293C28.1752 6.84937 28.03 6.77796 27.8921 6.72872C27.7542 6.67455 27.6188 6.63515 27.4858 6.61053C27.3578 6.58591 27.2297 6.57113 27.1017 6.56621C26.9737 6.56129 26.8432 6.55882 26.7102 6.55882C26.5034 6.55882 26.3113 6.58837 26.1341 6.64746C25.9617 6.70163 25.7992 6.77796 25.6465 6.87645C25.4939 6.97494 25.3511 7.0882 25.2181 7.21624C25.0901 7.34427 24.9645 7.4797 24.8414 7.6225C24.4868 8.04108 24.2184 8.60001 24.0362 9.29928C23.859 9.99363 23.7703 10.8259 23.7703 11.796C23.7703 12.2786 23.8122 12.7168 23.8959 13.1108C23.9845 13.4998 24.0929 13.847 24.2209 14.1523C24.3489 14.4527 24.4893 14.7137 24.642 14.9353C24.7995 15.152 24.9473 15.3293 25.0852 15.4672C25.2329 15.6247 25.3732 15.7626 25.5062 15.8808C25.6441 15.9941 25.7869 16.0876 25.9346 16.1615C26.0824 16.2354 26.2424 16.292 26.4148 16.3314C26.5871 16.3659 26.7816 16.3831 26.9983 16.3831C27.3282 16.3831 27.6508 16.3117 27.966 16.1689C28.2811 16.0261 28.5889 15.839 28.8893 15.6075C28.9533 15.5583 29.0198 15.4992 29.0887 15.4302C29.1577 15.3613 29.2242 15.2923 29.2882 15.2234C29.3571 15.1545 29.4187 15.088 29.4728 15.024C29.5319 14.955 29.5812 14.8935 29.6206 14.8393C29.7782 14.5931 29.916 14.3542 30.0342 14.1228C30.1524 13.8913 30.2607 13.6525 30.3592 13.4063C30.4085 13.3324 30.4947 13.2955 30.6178 13.2955C30.6719 13.2955 30.7089 13.3152 30.7286 13.3546C30.7483 13.394 30.7581 13.4407 30.7581 13.4949C30.6793 13.7658 30.6104 14.012 30.5513 14.2336C30.4922 14.4503 30.4282 14.6817 30.3592 14.9279C30.3149 15.1052 30.2829 15.28 30.2632 15.4524C30.2435 15.6198 30.2238 15.77 30.2041 15.903C30.1844 16.031 30.1623 16.1344 30.1376 16.2132C30.113 16.292 30.0736 16.3314 30.0195 16.3314C29.9801 16.3314 29.948 16.3166 29.9234 16.2871C29.8988 16.2575 29.8742 16.2107 29.8496 16.1467C29.8397 16.0975 29.8225 16.0556 29.7979 16.0212C29.7782 15.9818 29.7412 15.9621 29.6871 15.9621C29.6329 15.9621 29.5812 15.9719 29.5319 15.9916C29.4876 16.0113 29.431 16.0433 29.362 16.0876C29.2931 16.127 29.2069 16.1763 29.1035 16.2354C29.0001 16.2895 28.8622 16.3536 28.6898 16.4274C28.3747 16.5555 28.0374 16.6589 27.6779 16.7377C27.3184 16.8115 26.9614 16.8485 26.6068 16.8485C26.0897 16.8485 25.617 16.782 25.1886 16.649C24.7601 16.5111 24.3539 16.2797 23.9698 15.9547C23.6644 15.6937 23.3911 15.3957 23.1498 15.0609C22.9085 14.7211 22.7017 14.3616 22.5294 13.9824C22.3619 13.6032 22.2314 13.2118 22.1379 12.808C22.0492 12.3992 22.0049 11.9954 22.0049 11.5965ZM32.0286 13.3324C32.0286 12.8104 32.1148 12.3426 32.2872 11.9289C32.4644 11.5104 32.7082 11.1558 33.0184 10.8653C33.3287 10.5747 33.698 10.3507 34.1264 10.1931C34.5549 10.0355 35.0252 9.95669 35.5373 9.95669C35.6506 9.95669 35.7687 9.96901 35.8919 9.99363C36.015 10.0182 36.1381 10.0527 36.2612 10.097C36.3892 10.1364 36.5123 10.1832 36.6305 10.2374C36.7536 10.2916 36.8669 10.3482 36.9703 10.4073C37.5563 10.7323 37.9921 11.1533 38.2778 11.6704C38.5683 12.1875 38.7136 12.7784 38.7136 13.4432C38.7136 13.8913 38.6348 14.3222 38.4772 14.7359C38.3245 15.1446 38.0906 15.5164 37.7755 15.8513C37.4603 16.1763 37.1008 16.4126 36.697 16.5604C36.2932 16.7081 35.8697 16.782 35.4265 16.782C35.1015 16.782 34.7814 16.7524 34.4662 16.6933C34.156 16.6342 33.8457 16.4939 33.5355 16.2723C33.0184 15.898 32.6368 15.4721 32.3906 14.9944C32.1493 14.5167 32.0286 13.9627 32.0286 13.3324ZM33.2917 13.3693C33.2917 13.5663 33.309 13.7781 33.3435 14.0046C33.3779 14.2311 33.4296 14.4601 33.4986 14.6916C33.5724 14.9181 33.6635 15.1397 33.7719 15.3564C33.8851 15.5681 34.0181 15.7577 34.1708 15.9251C34.3234 16.0876 34.5007 16.2181 34.7026 16.3166C34.9045 16.4151 35.1286 16.4644 35.3748 16.4644C35.5324 16.4644 35.6703 16.4496 35.7884 16.42C35.9066 16.3856 36.0125 16.3388 36.1061 16.2797C36.2046 16.2206 36.2932 16.1517 36.372 16.0729C36.4557 15.9891 36.537 15.898 36.6158 15.7996C36.7536 15.6223 36.8718 15.4278 36.9703 15.216C37.0688 15.0043 37.1501 14.7876 37.2141 14.566C37.2781 14.3444 37.3224 14.1252 37.347 13.9086C37.3766 13.687 37.3914 13.4777 37.3914 13.2807C37.3914 13.0936 37.3717 12.8867 37.3323 12.6602C37.2929 12.4288 37.2288 12.1973 37.1402 11.9659C37.0565 11.7295 36.9482 11.5005 36.8152 11.2789C36.6822 11.0573 36.5222 10.8603 36.3351 10.688C36.1922 10.5501 36.0396 10.4491 35.8771 10.3851C35.7146 10.3211 35.5816 10.2891 35.4782 10.2891C35.2468 10.2891 35.0449 10.3137 34.8725 10.363C34.7001 10.4073 34.5475 10.4762 34.4145 10.5698C34.2816 10.6634 34.1585 10.7815 34.0452 10.9243C33.9368 11.0672 33.826 11.2346 33.7128 11.4266C33.5207 11.7517 33.4025 12.0742 33.3582 12.3943C33.3139 12.7144 33.2917 13.0394 33.2917 13.3693ZM44.8445 16.6564C44.8445 16.5136 44.8593 16.3363 44.8888 16.1246C44.9184 15.9128 44.9332 15.706 44.9332 15.5041C44.9332 15.4696 44.9258 15.4278 44.911 15.3785C44.9011 15.3243 44.8741 15.2973 44.8297 15.2973C44.81 15.2973 44.7854 15.3243 44.7559 15.3785C44.7312 15.4278 44.6968 15.4795 44.6525 15.5336C44.4949 15.7109 44.3373 15.8783 44.1797 16.0359C44.0221 16.1886 43.8547 16.324 43.6774 16.4422C43.5001 16.5604 43.3081 16.6539 43.1013 16.7229C42.8944 16.7869 42.6654 16.8189 42.4143 16.8189C42.173 16.8189 41.9415 16.7795 41.7199 16.7007C41.4983 16.617 41.2915 16.4914 41.0995 16.324C40.9764 16.2255 40.8754 16.1196 40.7966 16.0064C40.7227 15.8882 40.6637 15.7651 40.6193 15.637C40.5799 15.509 40.5529 15.3736 40.5381 15.2308C40.5233 15.088 40.5159 14.9402 40.5159 14.7876V10.4294C40.5159 10.3556 40.5085 10.2891 40.4938 10.23C40.4839 10.166 40.4396 10.134 40.3608 10.134H39.2085C39.1642 10.134 39.1272 10.1143 39.0977 10.0749C39.0681 10.0355 39.0534 9.99609 39.0534 9.95669C39.0534 9.937 39.0583 9.90006 39.0681 9.84589C39.0829 9.79173 39.1174 9.76464 39.1715 9.76464H41.6091C41.6879 9.76464 41.7273 9.79911 41.7273 9.86805V14.4035C41.7273 14.5906 41.7544 14.7753 41.8086 14.9575C41.8677 15.1397 41.9514 15.3022 42.0597 15.445C42.1681 15.5878 42.301 15.7035 42.4586 15.7922C42.6211 15.8808 42.8083 15.9251 43.02 15.9251C43.2613 15.9251 43.4706 15.903 43.6479 15.8586C43.8251 15.8094 44.0074 15.7331 44.1945 15.6297C44.4013 15.5065 44.5835 15.3293 44.7411 15.0978C44.8002 15.0141 44.847 14.9353 44.8814 14.8614C44.9159 14.7876 44.943 14.7137 44.9627 14.6398C44.9824 14.566 44.9972 14.4872 45.007 14.4035C45.0169 14.3198 45.0218 14.2262 45.0218 14.1228L45.103 10.459C45.103 10.4442 45.1006 10.4147 45.0957 10.3703C45.0957 10.3211 45.0883 10.2694 45.0735 10.2152C45.0636 10.1611 45.0464 10.1143 45.0218 10.0749C44.9972 10.0306 44.9627 10.0084 44.9184 10.0084C44.8888 10.0084 44.8297 10.0133 44.7411 10.0232C44.6574 10.033 44.5589 10.0379 44.4456 10.0379C44.3373 10.0379 44.2339 10.0404 44.1354 10.0453C44.0418 10.0453 43.968 10.0453 43.9138 10.0453C43.8104 10.0453 43.7242 10.0404 43.6553 10.0306C43.5863 10.0207 43.5518 9.98378 43.5518 9.91976C43.5518 9.88529 43.5543 9.84836 43.5592 9.80896C43.5642 9.76957 43.5839 9.73756 43.6183 9.71293C43.6626 9.68339 43.7119 9.66369 43.7661 9.65384C43.8251 9.64399 43.8818 9.63907 43.9359 9.63907C44.0049 9.63907 44.0837 9.64399 44.1723 9.65384C44.261 9.66369 44.3521 9.67354 44.4456 9.68339C44.5392 9.69324 44.6278 9.70309 44.7116 9.71293C44.7953 9.72278 44.8691 9.72771 44.9332 9.72771H46.3514C46.3859 9.72771 46.4031 9.74494 46.4031 9.77941L46.1741 15.5927V15.6961C46.1741 15.7208 46.1741 15.7405 46.1741 15.7552C46.1741 15.77 46.179 15.7897 46.1889 15.8143C46.2086 15.898 46.2431 15.9744 46.2923 16.0433C46.3415 16.1123 46.4203 16.1467 46.5287 16.1467C46.5927 16.1467 46.6616 16.1418 46.7355 16.132C46.8094 16.1221 46.8808 16.1098 46.9497 16.095C47.0187 16.0802 47.0827 16.0679 47.1418 16.0581C47.2058 16.0482 47.2575 16.0433 47.2969 16.0433C47.3511 16.0433 47.3831 16.063 47.3929 16.1024C47.4077 16.1418 47.4151 16.1763 47.4151 16.2058C47.4151 16.2649 47.3929 16.3117 47.3486 16.3462C47.3092 16.3757 47.2673 16.4028 47.223 16.4274C47.1147 16.4619 47.0162 16.4791 46.9276 16.4791C46.8734 16.4791 46.8217 16.4816 46.7724 16.4865C46.7281 16.4865 46.6641 16.4914 46.5804 16.5013C46.4228 16.521 46.2504 16.553 46.0633 16.5973C45.8811 16.6416 45.7186 16.686 45.5758 16.7303C45.4724 16.7697 45.3764 16.8017 45.2877 16.8263C45.204 16.8558 45.1129 16.8706 45.0144 16.8706C44.9602 16.8706 44.9184 16.8485 44.8888 16.8041C44.8593 16.7598 44.8445 16.7106 44.8445 16.6564ZM47.7918 16.7155C47.7918 16.6712 47.8041 16.6342 47.8287 16.6047C47.8583 16.5702 47.8903 16.5456 47.9248 16.5308C47.9641 16.5111 48.0035 16.4964 48.0429 16.4865C48.0823 16.4767 48.1143 16.4717 48.139 16.4717H48.8776C48.9958 16.4717 49.0549 16.3954 49.0549 16.2428V8.22083C49.0549 7.98445 49.0328 7.80225 48.9884 7.67421C48.9441 7.54125 48.8875 7.44276 48.8185 7.37874C48.7496 7.31473 48.6708 7.27779 48.5822 7.26794C48.4985 7.25317 48.4147 7.24578 48.331 7.24578C48.2621 7.24578 48.2005 7.25071 48.1464 7.26056C48.0922 7.27041 48.0429 7.28272 47.9986 7.29749C47.9543 7.30734 47.91 7.31719 47.8657 7.32704C47.8213 7.33689 47.7746 7.34181 47.7253 7.34181C47.681 7.34181 47.6416 7.33442 47.6071 7.31965C47.5677 7.29995 47.548 7.26794 47.548 7.22362C47.548 7.15468 47.5825 7.10298 47.6514 7.0685C47.7302 7.01434 47.8115 6.97248 47.8952 6.94293C47.9789 6.90846 48.0626 6.88137 48.1464 6.86168C48.235 6.83705 48.3236 6.81489 48.4123 6.7952C48.5009 6.7755 48.5871 6.75088 48.6708 6.72133C48.8875 6.64746 49.0475 6.59329 49.1509 6.55882C49.2544 6.51943 49.3331 6.48742 49.3873 6.4628C49.4464 6.43325 49.4981 6.40617 49.5424 6.38154C49.5868 6.35692 49.6582 6.32245 49.7566 6.27813C49.8847 6.22889 50.0103 6.20426 50.1334 6.20426C50.1531 6.20426 50.1851 6.20919 50.2294 6.21904C50.2737 6.22396 50.3082 6.24366 50.3328 6.27813C50.3919 6.34215 50.4214 6.47018 50.4214 6.66224V16.2428C50.4214 16.3462 50.451 16.4102 50.5101 16.4348C50.5692 16.4545 50.6332 16.4644 50.7021 16.4644C50.8154 16.4644 50.9213 16.457 51.0198 16.4422C51.1232 16.4225 51.2315 16.4126 51.3448 16.4126C51.4088 16.4126 51.4654 16.4299 51.5147 16.4644C51.5639 16.4988 51.5885 16.5505 51.5885 16.6195C51.5885 16.6687 51.5762 16.718 51.5516 16.7672C51.527 16.8115 51.4925 16.8337 51.4482 16.8337H51.2044C51.0222 16.8337 50.8523 16.8288 50.6948 16.8189C50.5421 16.814 50.3919 16.8066 50.2442 16.7968C50.0964 16.7869 49.9512 16.7795 49.8084 16.7746C49.6655 16.7647 49.5129 16.7598 49.3504 16.7598C49.1583 16.7598 48.9761 16.7721 48.8038 16.7968C48.6363 16.8214 48.4738 16.8337 48.3162 16.8337H47.9174C47.8878 16.8337 47.8583 16.8189 47.8287 16.7894C47.8041 16.7647 47.7918 16.7401 47.7918 16.7155ZM58.7462 12.0545H53.6347C53.5805 12.0742 53.5485 12.0964 53.5386 12.121C53.5288 12.1407 53.5189 12.1825 53.5091 12.2466C53.4992 12.2909 53.4894 12.3869 53.4795 12.5346C53.4746 12.6824 53.4721 12.8498 53.4721 13.0369C53.4721 13.2241 53.4943 13.4038 53.5386 13.5762C53.5829 13.7485 53.6322 13.9184 53.6864 14.0858C53.8932 14.6965 54.2157 15.1618 54.654 15.4819C55.0972 15.802 55.6783 15.9621 56.3973 15.9621C56.5056 15.9621 56.6238 15.9424 56.7518 15.903C56.8799 15.8636 57.0079 15.8143 57.1359 15.7552C57.264 15.6912 57.3871 15.6173 57.5053 15.5336C57.6235 15.4499 57.7269 15.3637 57.8155 15.2751C57.8795 15.216 57.9312 15.1495 57.9706 15.0757C58.015 14.9969 58.0691 14.9008 58.1331 14.7876C58.1528 14.7679 58.1799 14.7531 58.2144 14.7433C58.2489 14.7285 58.2784 14.7211 58.303 14.7211C58.3917 14.7211 58.4508 14.7506 58.4803 14.8097C58.5148 14.8639 58.532 14.9329 58.532 15.0166C58.532 15.0412 58.5222 15.0757 58.5025 15.12C58.4877 15.1594 58.468 15.2012 58.4434 15.2456C58.4237 15.2899 58.3991 15.3342 58.3695 15.3785C58.3449 15.4179 58.3252 15.4475 58.3104 15.4672C58.1233 15.7478 57.8869 15.9965 57.6013 16.2132C57.3157 16.425 56.9734 16.5973 56.5746 16.7303C56.4859 16.7549 56.3333 16.7746 56.1166 16.7894C55.9048 16.8091 55.6734 16.8189 55.4222 16.8189C55.2006 16.8189 54.9716 16.7894 54.7353 16.7303C54.5038 16.6712 54.2773 16.5875 54.0557 16.4791C53.8341 16.3708 53.6273 16.2452 53.4352 16.1024C53.2481 15.9596 53.093 15.802 52.9699 15.6297C52.7039 15.2653 52.507 14.8959 52.3789 14.5217C52.2558 14.1474 52.1943 13.7288 52.1943 13.2659C52.1943 13.0985 52.2016 12.9409 52.2164 12.7932C52.2361 12.6405 52.2657 12.4928 52.3051 12.35C52.3494 12.2072 52.4035 12.0668 52.4676 11.9289C52.5316 11.7861 52.6104 11.6409 52.7039 11.4931C52.8664 11.2223 53.0511 10.9736 53.2579 10.7471C53.4648 10.5205 53.6937 10.326 53.9449 10.1635C54.196 10.001 54.4669 9.87544 54.7574 9.7868C55.048 9.69816 55.3607 9.65384 55.6955 9.65384C55.9762 9.65384 56.2668 9.68339 56.5672 9.74248C56.8725 9.79665 57.1655 9.91976 57.4462 10.1118C57.5348 10.1758 57.6579 10.2743 57.8155 10.4073C57.9731 10.5402 58.1282 10.6904 58.2809 10.8579C58.4335 11.0204 58.5665 11.1927 58.6798 11.3749C58.793 11.5571 58.8496 11.732 58.8496 11.8994C58.8496 11.9437 58.8398 11.9806 58.8201 12.0102C58.8053 12.0397 58.7807 12.0545 58.7462 12.0545ZM53.8267 11.6556H57.1138C57.1975 11.6556 57.2467 11.6458 57.2615 11.6261C57.2812 11.6015 57.2911 11.5768 57.2911 11.5522C57.2911 11.439 57.2615 11.3208 57.2024 11.1977C57.1482 11.0745 57.0793 10.9588 56.9956 10.8505C56.9168 10.7372 56.8355 10.6363 56.7518 10.5476C56.6681 10.459 56.5967 10.39 56.5376 10.3408C56.38 10.2078 56.2225 10.1217 56.0649 10.0823C55.9073 10.0429 55.7275 10.0232 55.5256 10.0232C55.4419 10.0232 55.3631 10.0256 55.2893 10.0306C55.2203 10.0306 55.1514 10.0355 55.0824 10.0453C55.0135 10.0552 54.9446 10.07 54.8756 10.0897C54.8067 10.1094 54.7303 10.1389 54.6466 10.1783C54.5531 10.2226 54.4497 10.294 54.3364 10.3925C54.2281 10.4861 54.1246 10.5969 54.0261 10.7249C53.9326 10.848 53.8513 10.9834 53.7824 11.1312C53.7184 11.2789 53.6864 11.4242 53.6864 11.567C53.6864 11.6261 53.7331 11.6556 53.8267 11.6556ZM64.9363 16.6564C64.9363 16.5136 64.951 16.3363 64.9806 16.1246C65.0101 15.9128 65.0249 15.706 65.0249 15.5041C65.0249 15.4696 65.0175 15.4278 65.0027 15.3785C64.9929 15.3243 64.9658 15.2973 64.9215 15.2973C64.9018 15.2973 64.8772 15.3243 64.8476 15.3785C64.823 15.4278 64.7885 15.4795 64.7442 15.5336C64.5866 15.7109 64.429 15.8783 64.2715 16.0359C64.1139 16.1886 63.9465 16.324 63.7692 16.4422C63.5919 16.5604 63.3998 16.6539 63.193 16.7229C62.9862 16.7869 62.7572 16.8189 62.506 16.8189C62.2648 16.8189 62.0333 16.7795 61.8117 16.7007C61.5901 16.617 61.3833 16.4914 61.1912 16.324C61.0681 16.2255 60.9672 16.1196 60.8884 16.0064C60.8145 15.8882 60.7554 15.7651 60.7111 15.637C60.6717 15.509 60.6446 15.3736 60.6298 15.2308C60.6151 15.088 60.6077 14.9402 60.6077 14.7876V10.4294C60.6077 10.3556 60.6003 10.2891 60.5855 10.23C60.5757 10.166 60.5313 10.134 60.4526 10.134H59.3002C59.2559 10.134 59.219 10.1143 59.1894 10.0749C59.1599 10.0355 59.1451 9.99609 59.1451 9.95669C59.1451 9.937 59.15 9.90006 59.1599 9.84589C59.1747 9.79173 59.2091 9.76464 59.2633 9.76464H61.7009C61.7797 9.76464 61.8191 9.79911 61.8191 9.86805V14.4035C61.8191 14.5906 61.8462 14.7753 61.9003 14.9575C61.9594 15.1397 62.0432 15.3022 62.1515 15.445C62.2598 15.5878 62.3928 15.7035 62.5504 15.7922C62.7129 15.8808 62.9 15.9251 63.1118 15.9251C63.3531 15.9251 63.5623 15.903 63.7396 15.8586C63.9169 15.8094 64.0991 15.7331 64.2862 15.6297C64.4931 15.5065 64.6753 15.3293 64.8329 15.0978C64.8919 15.0141 64.9387 14.9353 64.9732 14.8614C65.0077 14.7876 65.0348 14.7137 65.0545 14.6398C65.0742 14.566 65.0889 14.4872 65.0988 14.4035C65.1086 14.3198 65.1135 14.2262 65.1135 14.1228L65.1948 10.459C65.1948 10.4442 65.1923 10.4147 65.1874 10.3703C65.1874 10.3211 65.18 10.2694 65.1653 10.2152C65.1554 10.1611 65.1382 10.1143 65.1135 10.0749C65.0889 10.0306 65.0545 10.0084 65.0101 10.0084C64.9806 10.0084 64.9215 10.0133 64.8329 10.0232C64.7491 10.033 64.6506 10.0379 64.5374 10.0379C64.429 10.0379 64.3256 10.0404 64.2271 10.0453C64.1336 10.0453 64.0597 10.0453 64.0055 10.0453C63.9021 10.0453 63.816 10.0404 63.747 10.0306C63.6781 10.0207 63.6436 9.98378 63.6436 9.91976C63.6436 9.88529 63.6461 9.84836 63.651 9.80896C63.6559 9.76957 63.6756 9.73756 63.7101 9.71293C63.7544 9.68339 63.8036 9.66369 63.8578 9.65384C63.9169 9.64399 63.9735 9.63907 64.0277 9.63907C64.0966 9.63907 64.1754 9.64399 64.2641 9.65384C64.3527 9.66369 64.4438 9.67354 64.5374 9.68339C64.6309 9.69324 64.7196 9.70309 64.8033 9.71293C64.887 9.72278 64.9609 9.72771 65.0249 9.72771H66.4431C66.4776 9.72771 66.4949 9.74494 66.4949 9.77941L66.2659 15.5927V15.6961C66.2659 15.7208 66.2659 15.7405 66.2659 15.7552C66.2659 15.77 66.2708 15.7897 66.2806 15.8143C66.3003 15.898 66.3348 15.9744 66.3841 16.0433C66.4333 16.1123 66.5121 16.1467 66.6204 16.1467C66.6844 16.1467 66.7534 16.1418 66.8273 16.132C66.9011 16.1221 66.9725 16.1098 67.0415 16.095C67.1104 16.0802 67.1744 16.0679 67.2335 16.0581C67.2975 16.0482 67.3492 16.0433 67.3886 16.0433C67.4428 16.0433 67.4748 16.063 67.4847 16.1024C67.4994 16.1418 67.5068 16.1763 67.5068 16.2058C67.5068 16.2649 67.4847 16.3117 67.4403 16.3462C67.401 16.3757 67.3591 16.4028 67.3148 16.4274C67.2064 16.4619 67.1079 16.4791 67.0193 16.4791C66.9651 16.4791 66.9134 16.4816 66.8642 16.4865C66.8199 16.4865 66.7559 16.4914 66.6721 16.5013C66.5146 16.521 66.3422 16.553 66.1551 16.5973C65.9729 16.6416 65.8104 16.686 65.6675 16.7303C65.5641 16.7697 65.4681 16.8017 65.3795 16.8263C65.2958 16.8558 65.2046 16.8706 65.1062 16.8706C65.052 16.8706 65.0101 16.8485 64.9806 16.8041C64.951 16.7598 64.9363 16.7106 64.9363 16.6564ZM69.3609 16.191V12.1432C69.3609 11.9954 69.3584 11.8403 69.3535 11.6778C69.3535 11.5104 69.3436 11.3552 69.3239 11.2124C69.3092 11.0696 69.2821 10.949 69.2427 10.8505C69.2082 10.7471 69.159 10.6806 69.095 10.651C68.9768 10.5969 68.8315 10.5698 68.6591 10.5698C68.5459 10.5698 68.44 10.5747 68.3415 10.5846C68.248 10.5944 68.1618 10.5993 68.083 10.5993C68.0584 10.5993 68.0362 10.5895 68.0165 10.5698C67.9968 10.5501 67.987 10.5304 67.987 10.5107C67.987 10.4565 68.0042 10.4245 68.0387 10.4147C68.1913 10.326 68.3464 10.2645 68.504 10.23C68.6616 10.1955 68.8241 10.1512 68.9915 10.097C69.1393 10.0527 69.2895 10.0059 69.4421 9.95669C69.5948 9.90745 69.7351 9.84343 69.8632 9.76464C69.9518 9.72032 70.0331 9.67354 70.1069 9.62429C70.1808 9.57505 70.2744 9.55043 70.3876 9.55043C70.4172 9.55043 70.4443 9.57012 70.4689 9.60952C70.4984 9.64399 70.5132 9.67108 70.5132 9.69077V10.097C70.5132 10.1364 70.5132 10.1832 70.5132 10.2374C70.5181 10.2916 70.5206 10.3457 70.5206 10.3999C70.5255 10.4541 70.5304 10.5058 70.5354 10.555C70.5403 10.5993 70.5452 10.6313 70.5501 10.651C70.5551 10.6707 70.5624 10.6855 70.5723 10.6954L70.5797 10.7027C70.6092 10.7027 70.6363 10.688 70.6609 10.6584C70.6856 10.624 70.7126 10.5821 70.7422 10.5329C70.7767 10.4787 70.8136 10.4196 70.853 10.3556C70.8973 10.2916 70.9539 10.2275 71.0229 10.1635C71.1164 10.07 71.2199 9.98378 71.3331 9.90499C71.4513 9.82127 71.572 9.74987 71.6951 9.69077C71.8231 9.63168 71.9511 9.5849 72.0792 9.55043C72.2121 9.51596 72.3426 9.49872 72.4707 9.49872C72.6578 9.49872 72.8499 9.51596 73.0468 9.55043C73.2438 9.57997 73.4211 9.6366 73.5787 9.72032C73.7412 9.79911 73.8741 9.91237 73.9776 10.0601C74.081 10.2078 74.1327 10.395 74.1327 10.6215C74.1327 10.7446 74.1056 10.8579 74.0514 10.9613C74.0022 11.0647 73.9332 11.1533 73.8446 11.2272C73.7609 11.3011 73.6624 11.3602 73.5491 11.4045C73.4408 11.4439 73.3275 11.4636 73.2093 11.4636C73.1305 11.4636 73.0468 11.4513 72.9582 11.4266C72.8696 11.402 72.8129 11.3725 72.7883 11.338C72.6356 11.2001 72.5298 11.013 72.4707 10.7766C72.446 10.6437 72.4288 10.5329 72.419 10.4442C72.414 10.3507 72.3943 10.2792 72.3599 10.23C72.3303 10.1758 72.2786 10.1389 72.2047 10.1192C72.1309 10.0946 72.0152 10.0823 71.8576 10.0823C71.7295 10.0823 71.5966 10.1167 71.4587 10.1857C71.3257 10.2497 71.2002 10.3334 71.082 10.4368C70.9687 10.5402 70.8702 10.656 70.7865 10.784C70.7028 10.9071 70.6535 11.0278 70.6388 11.1459C70.6142 11.2543 70.5994 11.3725 70.5945 11.5005C70.5945 11.6236 70.5945 11.7517 70.5945 11.8846V16.324C70.624 16.388 70.6782 16.4299 70.757 16.4496C70.8358 16.4644 70.9244 16.4717 71.0229 16.4717C71.0524 16.4717 71.0918 16.4717 71.1411 16.4717C71.1952 16.4668 71.2494 16.4644 71.3036 16.4644C71.3627 16.4594 71.4144 16.457 71.4587 16.457C71.503 16.452 71.5326 16.4496 71.5473 16.4496C71.6606 16.4496 71.7517 16.4644 71.8206 16.4939C71.8945 16.5185 71.9314 16.5752 71.9314 16.6638C71.9314 16.7229 71.9019 16.7771 71.8428 16.8263C71.7886 16.8755 71.7345 16.9026 71.6803 16.9076C71.4095 16.8632 71.1312 16.8312 70.8456 16.8115C70.5649 16.7918 70.2842 16.782 70.0035 16.782C69.7081 16.782 69.4323 16.7943 69.1762 16.8189C68.9201 16.8435 68.6542 16.8558 68.3785 16.8558C68.3243 16.8558 68.2603 16.8362 68.1864 16.7968C68.1175 16.7574 68.083 16.7057 68.083 16.6416C68.083 16.6022 68.0953 16.5678 68.1199 16.5382C68.1445 16.5087 68.1741 16.4865 68.2086 16.4717C68.248 16.452 68.2849 16.4373 68.3194 16.4274C68.3588 16.4176 68.3908 16.4126 68.4154 16.4126C68.4696 16.4126 68.5213 16.4151 68.5705 16.42C68.6247 16.425 68.6813 16.4299 68.7404 16.4348C68.7847 16.4447 68.8315 16.452 68.8807 16.457C68.93 16.4619 68.9768 16.4644 69.0211 16.4644C69.0506 16.4644 69.0826 16.457 69.1171 16.4422C69.1565 16.4274 69.1934 16.4077 69.2279 16.3831C69.2673 16.3536 69.2993 16.324 69.3239 16.2945C69.3486 16.26 69.3609 16.2255 69.3609 16.191ZM74.7384 15.7183C74.7384 15.5853 74.7679 15.4548 74.827 15.3268C74.891 15.1938 74.9378 15.0707 74.9674 14.9575C74.9674 14.9378 74.9723 14.8984 74.9821 14.8393C74.9969 14.7753 75.0117 14.7088 75.0265 14.6398C75.0462 14.566 75.0634 14.4995 75.0782 14.4404C75.0929 14.3813 75.1028 14.3395 75.1077 14.3148C75.1225 14.2459 75.157 14.2114 75.2111 14.2114C75.2899 14.2114 75.3318 14.2582 75.3367 14.3518C75.3466 14.4207 75.349 14.4872 75.3441 14.5512C75.3441 14.6103 75.3515 14.6817 75.3663 14.7654C75.4106 14.9969 75.4721 15.216 75.5509 15.4228C75.6346 15.6247 75.7405 15.8045 75.8685 15.9621C76.0015 16.1196 76.1591 16.2452 76.3413 16.3388C76.5284 16.4274 76.7476 16.4717 76.9987 16.4717C77.1809 16.4717 77.3557 16.4447 77.5232 16.3905C77.6906 16.3314 77.8383 16.2501 77.9664 16.1467C78.0993 16.0433 78.2027 15.9153 78.2766 15.7626C78.3554 15.61 78.3948 15.4376 78.3948 15.2456C78.3948 14.9452 78.3406 14.6989 78.2323 14.5069C78.1289 14.3148 77.991 14.1548 77.8186 14.0268C77.6512 13.8987 77.4567 13.7953 77.2351 13.7165C77.0184 13.6328 76.7943 13.554 76.5629 13.4801C76.3364 13.4013 76.1123 13.3176 75.8907 13.229C75.674 13.1354 75.4795 13.0148 75.3072 12.867C75.1397 12.7144 75.0018 12.5248 74.8935 12.2983C74.7901 12.0717 74.7384 11.7861 74.7384 11.4414C74.7384 11.2297 74.7753 11.0475 74.8492 10.8948C74.923 10.7372 74.9895 10.6116 75.0486 10.5181C75.1225 10.4048 75.2161 10.2916 75.3293 10.1783C75.4426 10.0601 75.5731 9.95669 75.7208 9.86805C75.8685 9.77449 76.0335 9.69816 76.2157 9.63907C76.4028 9.57997 76.6047 9.55043 76.8214 9.55043C77.0135 9.55043 77.2203 9.58982 77.4419 9.66861C77.6684 9.74248 77.8654 9.84836 78.0328 9.98624C78.087 10.0306 78.1412 10.0798 78.1953 10.134C78.2495 10.1881 78.3037 10.2152 78.3579 10.2152C78.4268 10.2152 78.4834 10.1931 78.5277 10.1487C78.5721 10.0995 78.6164 10.0355 78.6607 9.95669C78.6706 9.94685 78.6804 9.94192 78.6903 9.94192C78.705 9.937 78.7173 9.93453 78.7272 9.93453C78.742 9.93453 78.7518 9.94931 78.7567 9.97885C78.7666 10.0035 78.774 10.033 78.7789 10.0675C78.7887 10.097 78.7937 10.129 78.7937 10.1635C78.7986 10.1931 78.8011 10.2152 78.8011 10.23C78.8011 10.2448 78.7937 10.294 78.7789 10.3777C78.769 10.4615 78.7518 10.5624 78.7272 10.6806C78.7075 10.7939 78.6829 10.917 78.6533 11.0499C78.6287 11.178 78.5992 11.2986 78.5647 11.4119C78.5351 11.5202 78.5031 11.6113 78.4687 11.6852C78.4391 11.759 78.4096 11.796 78.38 11.796C78.3702 11.796 78.3603 11.7935 78.3505 11.7886C78.3308 11.7787 78.3209 11.7689 78.3209 11.759C78.2815 11.6901 78.2544 11.631 78.2397 11.5818C78.2249 11.5325 78.2126 11.4857 78.2027 11.4414C78.1978 11.3971 78.1929 11.3528 78.188 11.3085C78.188 11.2592 78.1806 11.205 78.1658 11.1459C78.156 11.1066 78.1461 11.0696 78.1363 11.0351C78.1264 10.9958 78.1141 10.9613 78.0993 10.9317C78.0353 10.7692 77.9688 10.6363 77.8999 10.5329C77.8309 10.4294 77.7349 10.3236 77.6118 10.2152C77.5281 10.1315 77.4518 10.0675 77.3828 10.0232C77.3188 9.97393 77.2499 9.93946 77.176 9.91976C77.1021 9.89514 77.0159 9.88037 76.9175 9.87544C76.819 9.87052 76.6983 9.86805 76.5555 9.86805C76.4176 9.86805 76.2896 9.90006 76.1714 9.96408C76.0581 10.0232 75.9596 10.1044 75.8759 10.2078C75.7922 10.3113 75.7257 10.4319 75.6765 10.5698C75.6322 10.7027 75.61 10.8431 75.61 10.9908C75.61 11.2371 75.6617 11.439 75.7651 11.5965C75.8735 11.7492 76.0138 11.8797 76.1862 11.988C76.3635 12.0914 76.5629 12.1801 76.7845 12.254C77.0061 12.3278 77.2302 12.4041 77.4567 12.4829C77.6881 12.5617 77.9147 12.6553 78.1363 12.7636C78.3579 12.867 78.5548 13.0049 78.7272 13.1773C78.9045 13.3447 79.0448 13.5565 79.1482 13.8125C79.2566 14.0637 79.3107 14.3764 79.3107 14.7506C79.3107 14.9969 79.2467 15.2456 79.1187 15.4967C78.9906 15.7429 78.8331 15.9744 78.6459 16.191C78.5622 16.2895 78.449 16.3806 78.3061 16.4644C78.1683 16.5431 78.0131 16.6121 77.8408 16.6712C77.6734 16.7303 77.4961 16.7746 77.3089 16.8041C77.1267 16.8386 76.947 16.8558 76.7697 16.8558C76.5924 16.8558 76.3881 16.8165 76.1566 16.7377C75.9252 16.6589 75.7036 16.5604 75.4918 16.4422C75.2801 16.324 75.1003 16.2009 74.9526 16.0729C74.8098 15.9399 74.7384 15.8217 74.7384 15.7183ZM83.5359 13.4875C83.5458 13.1133 83.6098 12.7636 83.728 12.4386C83.8462 12.1136 84.0062 11.8157 84.2081 11.5448C84.41 11.274 84.6439 11.0327 84.9098 10.8209C85.1807 10.6092 85.4712 10.427 85.7815 10.2743C85.939 10.2005 86.1163 10.134 86.3133 10.0749C86.5152 10.0158 86.7097 9.98624 86.8969 9.98624C87.0347 9.98624 87.1972 10.0109 87.3844 10.0601C87.5715 10.1044 87.7488 10.1561 87.9162 10.2152C88.0836 10.2694 88.2265 10.3211 88.3446 10.3703C88.4628 10.4147 88.5244 10.4393 88.5293 10.4442C88.5392 10.4541 88.5736 10.459 88.6327 10.459V8.22083C88.6327 7.99923 88.6278 7.80717 88.6179 7.64466C88.613 7.47723 88.5909 7.33935 88.5515 7.23101C88.517 7.12267 88.4579 7.04388 88.3742 6.99464C88.2905 6.94047 88.1723 6.91338 88.0196 6.91338C87.9999 6.91338 87.9704 6.91831 87.931 6.92816C87.8916 6.93308 87.8473 6.94293 87.798 6.9577C87.7488 6.96755 87.6995 6.9774 87.6503 6.98725C87.601 6.99218 87.5567 6.99464 87.5173 6.99464C87.5026 6.99464 87.4681 6.99218 87.4139 6.98725C87.3598 6.98233 87.3007 6.97248 87.2366 6.9577C87.1775 6.94293 87.1234 6.92323 87.0741 6.89861C87.0298 6.87399 87.0077 6.84198 87.0077 6.80258C87.0077 6.78289 87.015 6.76565 87.0298 6.75088C87.0495 6.73118 87.0766 6.72133 87.1111 6.72133C87.2293 6.71148 87.3622 6.69425 87.5099 6.66962C87.6577 6.64008 87.798 6.61299 87.931 6.58837C88.0689 6.55882 88.1871 6.53174 88.2855 6.50712C88.389 6.48249 88.453 6.46526 88.4776 6.45541C88.6352 6.42586 88.7952 6.39139 88.9577 6.352C89.1202 6.3126 89.2803 6.27074 89.4379 6.22642C89.4625 6.21657 89.4945 6.19934 89.5339 6.17472C89.5782 6.15009 89.6225 6.13778 89.6669 6.13778C89.7456 6.13778 89.8121 6.15994 89.8663 6.20426C89.9205 6.24366 89.9475 6.28059 89.9475 6.31506V16.1689C90.046 16.1541 90.1544 16.1369 90.2726 16.1172C90.3957 16.0926 90.5163 16.0704 90.6345 16.0507C90.7576 16.031 90.8733 16.0138 90.9817 15.999C91.0949 15.9842 91.1885 15.9768 91.2624 15.9768C91.3165 15.9768 91.3461 15.9916 91.351 16.0212C91.3609 16.0458 91.3658 16.0704 91.3658 16.095C91.3658 16.164 91.3486 16.2058 91.3141 16.2206C91.1811 16.2551 91.0679 16.2772 90.9743 16.2871C90.8807 16.292 90.7773 16.3043 90.6641 16.324C90.4966 16.3536 90.3193 16.3979 90.1322 16.457C89.9451 16.5161 89.7653 16.5776 89.593 16.6416C89.3862 16.7204 89.2138 16.7844 89.0759 16.8337C88.943 16.8829 88.8248 16.9076 88.7214 16.9076C88.6179 16.9076 88.5662 16.8608 88.5662 16.7672C88.5662 16.6687 88.5761 16.5702 88.5958 16.4717C88.6204 16.3683 88.6327 16.2748 88.6327 16.191C88.6327 16.1664 88.6303 16.1246 88.6253 16.0655C88.6204 16.0015 88.6155 15.9596 88.6106 15.9399C88.5958 15.9054 88.5687 15.8882 88.5293 15.8882C88.5047 15.8882 88.4407 15.9325 88.3373 16.0212C88.2388 16.1098 88.1255 16.2107 87.9975 16.324C87.8694 16.4323 87.7389 16.5382 87.606 16.6416C87.4779 16.745 87.3696 16.8091 87.281 16.8337C87.1529 16.8731 87.0175 16.9002 86.8747 16.9149C86.7368 16.9297 86.6038 16.9371 86.4758 16.9371C86.0178 16.9371 85.6066 16.8386 85.2422 16.6416C84.8778 16.4397 84.5676 16.1763 84.3115 15.8513C84.0604 15.5262 83.8683 15.1594 83.7354 14.7506C83.6024 14.337 83.5359 13.916 83.5359 13.4875ZM88.6327 15.4819V11.3897C88.485 11.3897 88.3225 11.3208 88.1452 11.1829C88.0467 11.0992 87.9605 11.0056 87.8867 10.9022C87.8177 10.7988 87.734 10.7027 87.6355 10.6141C87.537 10.5205 87.4115 10.4442 87.2588 10.3851C87.1111 10.3211 86.9092 10.2891 86.6531 10.2891C86.4364 10.2891 86.2444 10.3383 86.0769 10.4368C85.9095 10.5304 85.7618 10.6584 85.6337 10.8209C85.5106 10.9785 85.4047 11.1607 85.3161 11.3675C85.2324 11.5695 85.1634 11.7787 85.1093 11.9954C85.0551 12.2121 85.0157 12.4238 84.9911 12.6307C84.9665 12.8375 84.9542 13.0246 84.9542 13.1921C84.9542 13.3546 84.9542 13.5195 84.9542 13.687C84.9591 13.8495 84.9714 14.0095 84.9911 14.1671C85.0108 14.3247 85.0428 14.4773 85.0871 14.6251C85.1314 14.7679 85.193 14.9033 85.2718 15.0313C85.39 15.2234 85.5131 15.4031 85.6411 15.5706C85.7692 15.738 85.9046 15.8857 86.0474 16.0138C86.1902 16.1369 86.3404 16.2354 86.498 16.3092C86.6605 16.3782 86.8304 16.4126 87.0077 16.4126C87.0667 16.4126 87.148 16.4003 87.2514 16.3757C87.3548 16.3511 87.4656 16.3166 87.5838 16.2723C87.7069 16.228 87.83 16.1763 87.9531 16.1172C88.0763 16.0532 88.1871 15.9867 88.2855 15.9177C88.389 15.8488 88.4727 15.7774 88.5367 15.7035C88.6007 15.6297 88.6327 15.5558 88.6327 15.4819ZM98.2797 12.0545H93.1681C93.114 12.0742 93.082 12.0964 93.0721 12.121C93.0623 12.1407 93.0524 12.1825 93.0426 12.2466C93.0327 12.2909 93.0229 12.3869 93.013 12.5346C93.0081 12.6824 93.0056 12.8498 93.0056 13.0369C93.0056 13.2241 93.0278 13.4038 93.0721 13.5762C93.1164 13.7485 93.1657 13.9184 93.2198 14.0858C93.4267 14.6965 93.7492 15.1618 94.1875 15.4819C94.6307 15.802 95.2118 15.9621 95.9308 15.9621C96.0391 15.9621 96.1573 15.9424 96.2853 15.903C96.4134 15.8636 96.5414 15.8143 96.6694 15.7552C96.7975 15.6912 96.9206 15.6173 97.0388 15.5336C97.1569 15.4499 97.2604 15.3637 97.349 15.2751C97.413 15.216 97.4647 15.1495 97.5041 15.0757C97.5484 14.9969 97.6026 14.9008 97.6666 14.7876C97.6863 14.7679 97.7134 14.7531 97.7479 14.7433C97.7824 14.7285 97.8119 14.7211 97.8365 14.7211C97.9252 14.7211 97.9843 14.7506 98.0138 14.8097C98.0483 14.8639 98.0655 14.9329 98.0655 15.0166C98.0655 15.0412 98.0557 15.0757 98.036 15.12C98.0212 15.1594 98.0015 15.2012 97.9769 15.2456C97.9572 15.2899 97.9325 15.3342 97.903 15.3785C97.8784 15.4179 97.8587 15.4475 97.8439 15.4672C97.6568 15.7478 97.4204 15.9965 97.1348 16.2132C96.8492 16.425 96.5069 16.5973 96.108 16.7303C96.0194 16.7549 95.8667 16.7746 95.6501 16.7894C95.4383 16.8091 95.2069 16.8189 94.9557 16.8189C94.7341 16.8189 94.5051 16.7894 94.2688 16.7303C94.0373 16.6712 93.8108 16.5875 93.5892 16.4791C93.3676 16.3708 93.1608 16.2452 92.9687 16.1024C92.7816 15.9596 92.6265 15.802 92.5033 15.6297C92.2374 15.2653 92.0404 14.8959 91.9124 14.5217C91.7893 14.1474 91.7277 13.7288 91.7277 13.2659C91.7277 13.0985 91.7351 12.9409 91.7499 12.7932C91.7696 12.6405 91.7991 12.4928 91.8385 12.35C91.8829 12.2072 91.937 12.0668 92.001 11.9289C92.0651 11.7861 92.1439 11.6409 92.2374 11.4931C92.3999 11.2223 92.5846 10.9736 92.7914 10.7471C92.9982 10.5205 93.2272 10.326 93.4784 10.1635C93.7295 10.001 94.0004 9.87544 94.2909 9.7868C94.5815 9.69816 94.8942 9.65384 95.229 9.65384C95.5097 9.65384 95.8003 9.68339 96.1007 9.74248C96.406 9.79665 96.699 9.91976 96.9797 10.1118C97.0683 10.1758 97.1914 10.2743 97.349 10.4073C97.5066 10.5402 97.6617 10.6904 97.8144 10.8579C97.967 11.0204 98.1 11.1927 98.2132 11.3749C98.3265 11.5571 98.3831 11.732 98.3831 11.8994C98.3831 11.9437 98.3733 11.9806 98.3536 12.0102C98.3388 12.0397 98.3142 12.0545 98.2797 12.0545ZM93.3602 11.6556H96.6473C96.731 11.6556 96.7802 11.6458 96.795 11.6261C96.8147 11.6015 96.8245 11.5768 96.8245 11.5522C96.8245 11.439 96.795 11.3208 96.7359 11.1977C96.6817 11.0745 96.6128 10.9588 96.5291 10.8505C96.4503 10.7372 96.369 10.6363 96.2853 10.5476C96.2016 10.459 96.1302 10.39 96.0711 10.3408C95.9135 10.2078 95.7559 10.1217 95.5984 10.0823C95.4408 10.0429 95.261 10.0232 95.0591 10.0232C94.9754 10.0232 94.8966 10.0256 94.8228 10.0306C94.7538 10.0306 94.6849 10.0355 94.6159 10.0453C94.547 10.0552 94.478 10.07 94.4091 10.0897C94.3402 10.1094 94.2638 10.1389 94.1801 10.1783C94.0866 10.2226 93.9831 10.294 93.8699 10.3925C93.7615 10.4861 93.6581 10.5969 93.5596 10.7249C93.4661 10.848 93.3848 10.9834 93.3159 11.1312C93.2519 11.2789 93.2198 11.4242 93.2198 11.567C93.2198 11.6261 93.2666 11.6556 93.3602 11.6556ZM5.98321 33.7155C5.98321 33.6712 5.99552 33.6342 6.02014 33.6047C6.04969 33.5702 6.0817 33.5456 6.11617 33.5308C6.15556 33.5111 6.19496 33.4964 6.23435 33.4865C6.27375 33.4767 6.30576 33.4717 6.33038 33.4717H7.06905C7.18724 33.4717 7.24633 33.3954 7.24633 33.2428V25.2208C7.24633 24.9845 7.22417 24.8022 7.17985 24.6742C7.13553 24.5413 7.0789 24.4428 7.00995 24.3787C6.94101 24.3147 6.86222 24.2778 6.77358 24.2679C6.68987 24.2532 6.60615 24.2458 6.52243 24.2458C6.45349 24.2458 6.39194 24.2507 6.33777 24.2606C6.2836 24.2704 6.23435 24.2827 6.19003 24.2975C6.14571 24.3073 6.10139 24.3172 6.05707 24.327C6.01275 24.3369 5.96597 24.3418 5.91673 24.3418C5.87241 24.3418 5.83301 24.3344 5.79854 24.3197C5.75914 24.3 5.73945 24.2679 5.73945 24.2236C5.73945 24.1547 5.77392 24.103 5.84286 24.0685C5.92165 24.0143 6.0029 23.9725 6.08662 23.9429C6.17034 23.9085 6.25405 23.8814 6.33777 23.8617C6.42641 23.8371 6.51505 23.8149 6.60369 23.7952C6.69233 23.7755 6.77851 23.7509 6.86222 23.7213C7.0789 23.6475 7.23894 23.5933 7.34236 23.5588C7.44577 23.5194 7.52456 23.4874 7.57873 23.4628C7.63782 23.4332 7.68953 23.4062 7.73385 23.3815C7.77817 23.3569 7.84957 23.3224 7.94806 23.2781C8.0761 23.2289 8.20167 23.2043 8.32478 23.2043C8.34448 23.2043 8.37649 23.2092 8.42081 23.219C8.46513 23.224 8.4996 23.2437 8.52422 23.2781C8.58332 23.3421 8.61286 23.4702 8.61286 23.6622V33.2428C8.61286 33.3462 8.64241 33.4102 8.7015 33.4348C8.7606 33.4545 8.82461 33.4644 8.89356 33.4644C9.00682 33.4644 9.1127 33.457 9.21118 33.4422C9.3146 33.4225 9.42294 33.4126 9.5362 33.4126C9.60022 33.4126 9.65685 33.4299 9.70609 33.4644C9.75534 33.4988 9.77996 33.5505 9.77996 33.6195C9.77996 33.6687 9.76765 33.718 9.74302 33.7672C9.7184 33.8115 9.68393 33.8337 9.63961 33.8337H9.39585C9.21365 33.8337 9.04375 33.8288 8.88617 33.8189C8.73351 33.814 8.58332 33.8066 8.43558 33.7968C8.28785 33.7869 8.14258 33.7795 7.99977 33.7746C7.85696 33.7647 7.7043 33.7598 7.5418 33.7598C7.34974 33.7598 7.16754 33.7721 6.99518 33.7968C6.82775 33.8214 6.66524 33.8337 6.50766 33.8337H6.10878C6.07923 33.8337 6.04969 33.8189 6.02014 33.7894C5.99552 33.7647 5.98321 33.7401 5.98321 33.7155ZM10.5408 25.9521C10.5506 25.9423 10.5605 25.9299 10.5703 25.9152C10.5802 25.8955 10.5999 25.8684 10.6294 25.8339C10.7131 25.7896 10.7845 25.7527 10.8436 25.7231C10.9027 25.6886 10.9544 25.6616 10.9988 25.6419C11.0825 25.5926 11.1884 25.5286 11.3164 25.4498C11.4493 25.371 11.5774 25.2824 11.7005 25.1839C11.8236 25.0854 11.9295 24.982 12.0181 24.8737C12.1068 24.7604 12.1511 24.6447 12.1511 24.5265C12.1511 24.5166 12.1486 24.4994 12.1437 24.4748C12.1388 24.4501 12.124 24.4378 12.0994 24.4378C12.0551 24.4477 12.0107 24.4551 11.9664 24.46C11.9221 24.4649 11.8778 24.4674 11.8335 24.4674C11.7744 24.4674 11.7177 24.4649 11.6636 24.46C11.6143 24.4551 11.5651 24.4477 11.5158 24.4378C11.4912 24.4378 11.4567 24.428 11.4124 24.4083C11.373 24.3886 11.3312 24.364 11.2868 24.3344C11.2474 24.3049 11.208 24.2753 11.1687 24.2458C11.1293 24.2113 11.0997 24.1818 11.08 24.1571C10.9668 24.039 10.9101 23.8863 10.9101 23.6992C10.9101 23.4677 10.9815 23.2806 11.1243 23.1378C11.2671 22.995 11.4567 22.9236 11.6931 22.9236C11.8605 22.9236 12.0132 22.9605 12.1511 23.0344C12.289 23.1033 12.4047 23.1969 12.4983 23.3151C12.5967 23.4283 12.6706 23.5613 12.7199 23.7139C12.774 23.8666 12.8011 24.0242 12.8011 24.1867C12.8011 24.4822 12.7396 24.7456 12.6164 24.9771C12.4983 25.2036 12.3259 25.3956 12.0994 25.5532C12.0206 25.6074 11.9369 25.664 11.8482 25.7231C11.7645 25.7773 11.666 25.8265 11.5528 25.8709C11.41 25.9299 11.2795 25.9743 11.1613 26.0038C11.0431 26.0334 10.9249 26.0481 10.8067 26.0481C10.7673 26.0481 10.7304 26.0457 10.6959 26.0407C10.6614 26.0309 10.6097 26.0014 10.5408 25.9521ZM13.7762 33.6416C13.7762 33.617 13.7786 33.5801 13.7835 33.5308C13.7934 33.4767 13.8254 33.4496 13.8796 33.4496H14.7364C14.7807 33.4496 14.8275 33.4348 14.8768 33.4053C14.926 33.3757 14.9506 33.3363 14.9506 33.2871V28.9142C14.9506 28.6827 14.9432 28.4808 14.9285 28.3085C14.9137 28.1361 14.8669 28.0056 14.7881 27.917C14.7537 27.8628 14.7192 27.8283 14.6847 27.8135C14.6552 27.7988 14.6305 27.7865 14.6108 27.7766C14.5862 27.7668 14.5591 27.7594 14.5296 27.7545C14.505 27.7495 14.4754 27.7471 14.441 27.7471H14.2858C14.1873 27.7471 14.0692 27.7495 13.9313 27.7545C13.7934 27.7594 13.6777 27.7668 13.5841 27.7766C13.5644 27.7766 13.5422 27.7742 13.5176 27.7692C13.493 27.7594 13.4807 27.7446 13.4807 27.7249C13.4807 27.6707 13.4905 27.6387 13.5102 27.6289C13.5349 27.619 13.5644 27.6043 13.5989 27.5846C13.7909 27.5205 14.0002 27.4664 14.2267 27.4221C14.4533 27.3728 14.6699 27.3211 14.8768 27.2669C14.8915 27.2669 14.9235 27.2595 14.9728 27.2448C15.027 27.2251 15.0811 27.2054 15.1353 27.1857C15.1944 27.166 15.251 27.1463 15.3052 27.1266C15.3594 27.1069 15.3988 27.0921 15.4234 27.0823C15.4874 27.0626 15.5514 27.0355 15.6154 27.001C15.6844 26.9616 15.7533 26.9247 15.8223 26.8902C15.8912 26.8557 15.9577 26.8262 16.0217 26.8016C16.0906 26.777 16.1596 26.7646 16.2285 26.7646C16.2531 26.7646 16.2753 26.777 16.295 26.8016C16.3196 26.8262 16.3319 26.8607 16.3319 26.905V31.6989C16.3319 31.8762 16.327 32.024 16.3172 32.1421C16.3122 32.2554 16.3049 32.3613 16.295 32.4598C16.2852 32.5533 16.2753 32.6494 16.2655 32.7478C16.2605 32.8414 16.2581 32.9571 16.2581 33.095C16.2581 33.2378 16.2728 33.3339 16.3024 33.3831C16.3369 33.4274 16.4329 33.4496 16.5905 33.4496C16.6446 33.4496 16.7284 33.4447 16.8416 33.4348C16.9549 33.42 17.0509 33.4126 17.1297 33.4126C17.1691 33.4126 17.211 33.4176 17.2553 33.4274C17.3045 33.4323 17.3488 33.4447 17.3882 33.4644C17.4326 33.4841 17.467 33.5111 17.4916 33.5456C17.5212 33.5801 17.536 33.6244 17.536 33.6786C17.536 33.713 17.5286 33.7426 17.5138 33.7672C17.504 33.7918 17.4769 33.8041 17.4326 33.8041C17.0731 33.8041 16.7481 33.7992 16.4575 33.7894C16.1719 33.7844 15.9011 33.782 15.645 33.782C15.2067 33.782 14.8521 33.8017 14.5813 33.8411C14.3105 33.8805 14.1184 33.9002 14.0051 33.9002C13.8525 33.9002 13.7762 33.814 13.7762 33.6416ZM14.7881 23.9577C14.7881 23.8247 14.8127 23.7115 14.862 23.6179C14.9112 23.5194 14.9753 23.4406 15.054 23.3815C15.1378 23.3175 15.2338 23.2732 15.3421 23.2486C15.4505 23.219 15.5637 23.2043 15.6819 23.2043C15.7903 23.2043 15.8937 23.224 15.9922 23.2634C16.0906 23.3028 16.1768 23.3569 16.2507 23.4259C16.3246 23.4948 16.3812 23.5761 16.4206 23.6696C16.4649 23.7632 16.4871 23.8617 16.4871 23.9651C16.4871 24.0981 16.4649 24.2138 16.4206 24.3123C16.3763 24.4058 16.3147 24.4822 16.2359 24.5413C16.1571 24.6003 16.0636 24.6447 15.9552 24.6742C15.8518 24.6988 15.7385 24.7111 15.6154 24.7111C15.3594 24.7111 15.1575 24.6521 15.0097 24.5339C14.862 24.4157 14.7881 24.2236 14.7881 23.9577ZM19.1537 33.2058L19.2792 28.2494C19.2792 28.205 19.2694 28.1509 19.2497 28.0869C19.2349 28.0228 19.2127 27.9613 19.1832 27.9022C19.1537 27.8431 19.1192 27.7939 19.0798 27.7545C19.0404 27.7101 19.001 27.688 18.9616 27.688C18.868 27.688 18.7819 27.6978 18.7031 27.7175C18.6292 27.7372 18.5627 27.7594 18.5036 27.784C18.4445 27.8037 18.3928 27.8234 18.3485 27.8431C18.3042 27.8579 18.2697 27.8653 18.2451 27.8653C18.1761 27.8653 18.1417 27.8308 18.1417 27.7618C18.1466 27.7175 18.1663 27.6757 18.2008 27.6363C18.2402 27.5969 18.2845 27.5624 18.3337 27.5329C18.383 27.5033 18.4322 27.4787 18.4815 27.459C18.5307 27.4344 18.5676 27.4171 18.5923 27.4073C18.7597 27.363 18.9124 27.3186 19.0502 27.2743C19.1881 27.2251 19.3211 27.1734 19.4491 27.1192C19.5772 27.065 19.7052 27.0059 19.8332 26.9419C19.9613 26.873 20.1016 26.7966 20.2543 26.7129C20.3183 26.6883 20.3774 26.676 20.4315 26.676C20.4906 26.676 20.5202 26.7031 20.5202 26.7573C20.5202 26.8016 20.5153 26.8631 20.5054 26.9419C20.4956 27.0207 20.4857 27.102 20.4759 27.1857C20.466 27.2694 20.4562 27.3507 20.4463 27.4294C20.4365 27.5033 20.4315 27.5599 20.4315 27.5993V27.7397C20.4315 27.8234 20.4389 27.9047 20.4537 27.9834C20.4734 28.0573 20.5005 28.0942 20.535 28.0942C20.5891 28.0942 20.6285 28.0598 20.6531 27.9908C20.6827 27.9219 20.7369 27.8406 20.8157 27.7471C20.9535 27.5796 21.116 27.4221 21.3032 27.2743C21.4903 27.1217 21.6897 26.9887 21.9015 26.8754C22.1132 26.7622 22.3324 26.6711 22.5589 26.6021C22.7904 26.5332 23.0144 26.4987 23.2311 26.4987C23.3099 26.4987 23.401 26.5061 23.5044 26.5209C23.6127 26.5307 23.726 26.5652 23.8442 26.6243C23.9624 26.6785 24.083 26.7622 24.2061 26.8754C24.3292 26.9838 24.4474 27.134 24.5607 27.326C24.5804 27.3703 24.5952 27.4122 24.605 27.4516C24.6198 27.4861 24.6321 27.523 24.642 27.5624C24.6518 27.6018 24.6641 27.6486 24.6789 27.7027C24.6937 27.7569 24.7134 27.8283 24.738 27.917C24.7724 28.0204 24.8069 28.0721 24.8414 28.0721C24.8906 28.0721 24.9276 28.0204 24.9522 27.917C24.9867 27.784 25.0433 27.6683 25.1221 27.5698C25.2009 27.4664 25.255 27.3999 25.2846 27.3703C25.5407 27.0847 25.8312 26.8508 26.1562 26.6686C26.4862 26.4864 26.853 26.3953 27.2568 26.3953C27.4735 26.3953 27.668 26.4396 27.8404 26.5283C28.0177 26.612 28.1728 26.7252 28.3057 26.8681C28.4387 27.0109 28.552 27.1758 28.6455 27.363C28.7391 27.5501 28.8154 27.7446 28.8745 27.9465C28.9336 28.1435 28.9755 28.3429 29.0001 28.5448C29.0296 28.7467 29.0444 28.9339 29.0444 29.1062V31.7506C29.0444 31.9722 29.0321 32.1889 29.0075 32.4007C28.9829 32.6075 28.9705 32.7946 28.9705 32.9621C28.9705 33.1295 29.0543 33.2206 29.2217 33.2354H30.0564C30.1007 33.2354 30.1303 33.2551 30.145 33.2945C30.1499 33.3289 30.1549 33.3585 30.1598 33.3831C30.1647 33.4077 30.1672 33.4299 30.1672 33.4496C30.1672 33.4841 30.1647 33.5185 30.1598 33.553C30.1549 33.5875 30.1499 33.617 30.145 33.6416C30.1352 33.6761 30.081 33.6958 29.9825 33.7007C29.884 33.7057 29.7806 33.7081 29.6723 33.7081H28.9705C28.7194 33.7081 28.5027 33.713 28.3205 33.7229C28.1432 33.7278 27.9832 33.7352 27.8404 33.745C27.7025 33.7549 27.572 33.7647 27.4489 33.7746C27.3307 33.7795 27.2101 33.782 27.0869 33.782H26.7915C26.6388 33.782 26.5625 33.713 26.5625 33.5752C26.5625 33.521 26.5699 33.4791 26.5846 33.4496C26.6043 33.42 26.6265 33.3954 26.6511 33.3757C26.6659 33.3659 26.7004 33.356 26.7545 33.3462C26.8136 33.3314 26.8752 33.3191 26.9392 33.3092C27.0081 33.2994 27.0722 33.292 27.1313 33.2871C27.1904 33.2772 27.2322 33.2723 27.2568 33.2723C27.2815 33.2625 27.3061 33.2575 27.3307 33.2575C27.3553 33.2575 27.3775 33.2575 27.3972 33.2575H27.5375C27.6212 33.2575 27.6631 33.2107 27.6631 33.1172V28.8255C27.6631 28.6285 27.6459 28.4414 27.6114 28.2641C27.5769 28.0869 27.5203 27.9317 27.4415 27.7988C27.3676 27.6658 27.2642 27.5624 27.1313 27.4885C27.0032 27.4097 26.8432 27.3703 26.6511 27.3703C26.3655 27.3703 26.107 27.4122 25.8755 27.4959C25.649 27.5796 25.4569 27.6954 25.2994 27.8431C25.1418 27.9908 25.0187 28.1656 24.93 28.3675C24.8463 28.5645 24.8045 28.7812 24.8045 29.0176V33.0802C24.8045 33.1393 24.8217 33.1861 24.8562 33.2206C24.8906 33.2551 24.9325 33.2846 24.9817 33.3092C25.031 33.3289 25.0827 33.3437 25.1369 33.3536C25.196 33.3634 25.2452 33.3708 25.2846 33.3757C25.3535 33.3806 25.4102 33.3856 25.4545 33.3905C25.4988 33.3954 25.5407 33.3979 25.5801 33.3979C25.6195 33.3979 25.6515 33.3979 25.6761 33.3979C25.7007 33.3979 25.7253 33.4028 25.75 33.4126C25.7943 33.4323 25.8189 33.457 25.8238 33.4865C25.8337 33.5161 25.8386 33.5505 25.8386 33.5899C25.8386 33.6441 25.8189 33.686 25.7795 33.7155C25.7401 33.7401 25.6909 33.7598 25.6318 33.7746C25.5776 33.7844 25.5185 33.7894 25.4545 33.7894C25.3954 33.7943 25.3437 33.7968 25.2994 33.7968C25.2944 33.7968 25.2575 33.7943 25.1886 33.7894C25.1245 33.7894 25.0359 33.7894 24.9226 33.7894C24.8094 33.7894 24.6789 33.7869 24.5312 33.782C24.3834 33.782 24.2258 33.782 24.0584 33.782C23.9451 33.782 23.822 33.782 23.6891 33.782C23.5561 33.7869 23.4256 33.7894 23.2976 33.7894C23.1745 33.7943 23.0612 33.7968 22.9578 33.7968C22.8544 33.8017 22.778 33.8041 22.7288 33.8041C22.6402 33.8041 22.554 33.7918 22.4703 33.7672C22.3866 33.7426 22.3447 33.6786 22.3447 33.5752C22.3447 33.452 22.4235 33.3856 22.5811 33.3757C22.6205 33.3659 22.6574 33.3609 22.6919 33.3609C22.7263 33.3609 22.7682 33.3609 22.8174 33.3609C22.8815 33.3609 22.9479 33.3585 23.0169 33.3536C23.0858 33.3437 23.1498 33.3314 23.2089 33.3166C23.268 33.2969 23.3148 33.2723 23.3493 33.2428C23.3887 33.2083 23.4084 33.1664 23.4084 33.1172L23.497 28.6556C23.497 28.5424 23.4798 28.4316 23.4453 28.3232C23.4059 28.205 23.3493 28.0893 23.2754 27.9761C23.2015 27.8628 23.1129 27.7618 23.0095 27.6732C22.911 27.5846 22.8002 27.5132 22.6771 27.459C22.554 27.4048 22.4235 27.3777 22.2856 27.3777C22.1132 27.3777 21.9434 27.4048 21.7759 27.459C21.6085 27.5082 21.4534 27.5821 21.3106 27.6806C21.1678 27.7742 21.0373 27.8874 20.9191 28.0204C20.8058 28.1484 20.7147 28.2937 20.6458 28.4562C20.6162 28.5448 20.5867 28.6359 20.5571 28.7295C20.5325 28.8181 20.5202 28.9142 20.5202 29.0176L20.4168 33.095C20.4168 33.1787 20.4266 33.2526 20.4463 33.3166C20.466 33.3806 20.5079 33.4126 20.5719 33.4126H21.4435C21.4878 33.4126 21.5125 33.4274 21.5174 33.457C21.5272 33.4865 21.5322 33.5185 21.5322 33.553C21.5322 33.6072 21.5174 33.6638 21.4878 33.7229C21.4583 33.7771 21.4041 33.8041 21.3253 33.8041C21.1087 33.8041 20.8944 33.8017 20.6827 33.7968C20.4709 33.7968 20.2715 33.7943 20.0844 33.7894C19.8972 33.7894 19.7298 33.7869 19.5821 33.782C19.4393 33.782 19.3309 33.782 19.2571 33.782C19.129 33.782 18.9862 33.7844 18.8286 33.7894C18.676 33.7992 18.5061 33.8041 18.319 33.8041H18.1195C18.085 33.8041 18.0555 33.7894 18.0309 33.7598C18.0112 33.7303 18.0013 33.6958 18.0013 33.6564C18.0013 33.6121 18.0136 33.5727 18.0383 33.5382C18.0678 33.4988 18.1121 33.4742 18.1712 33.4644C18.2451 33.4447 18.3165 33.4348 18.3854 33.4348C18.4544 33.4299 18.5258 33.4274 18.5996 33.4274H18.873C18.9517 33.4274 19.0182 33.4126 19.0724 33.3831C19.1266 33.3536 19.1537 33.2945 19.1537 33.2058ZM36.6453 30.3693C36.6453 30.1231 36.6231 29.872 36.5788 29.6159C36.5394 29.3549 36.4754 29.1038 36.3868 28.8625C36.2981 28.6162 36.1849 28.3848 36.047 28.1681C35.914 27.9514 35.754 27.7643 35.5668 27.6067C35.3797 27.4442 35.1655 27.3162 34.9242 27.2226C34.6878 27.129 34.4219 27.0823 34.1264 27.0823C33.9492 27.0823 33.7842 27.1118 33.6315 27.1709C33.4838 27.23 33.3558 27.3113 33.2474 27.4147C33.144 27.5181 33.0628 27.6437 33.0037 27.7914C32.9446 27.9342 32.915 28.0942 32.915 28.2715C32.915 28.3011 32.915 28.3355 32.915 28.3749C32.92 28.4143 32.9249 28.4783 32.9298 28.567C32.9396 28.6556 32.9495 28.7812 32.9593 28.9437C32.9692 29.1013 32.9815 29.318 32.9963 29.5937C33.0111 29.8646 33.0258 30.2068 33.0406 30.6205C33.0554 31.0292 33.0726 31.529 33.0923 32.12C33.0923 32.1791 33.1194 32.2431 33.1736 32.312C33.2277 32.381 33.2819 32.4327 33.3361 32.4672C33.4641 32.5755 33.5848 32.674 33.698 32.7626C33.8113 32.8463 33.9245 32.9177 34.0378 32.9768C34.156 33.0359 34.2766 33.0802 34.3997 33.1098C34.5278 33.1393 34.6681 33.1541 34.8208 33.1541C35.0572 33.1541 35.2665 33.1024 35.4487 32.999C35.6358 32.8907 35.7983 32.7552 35.9362 32.5927C36.0741 32.4253 36.1898 32.2406 36.2834 32.0387C36.3818 31.8368 36.4606 31.6374 36.5197 31.4404C36.5542 31.3271 36.5788 31.2262 36.5936 31.1376C36.6133 31.044 36.6256 30.9553 36.6305 30.8716C36.6354 30.7879 36.6379 30.7067 36.6379 30.6279C36.6379 30.5491 36.6404 30.4629 36.6453 30.3693ZM30.0638 27.7101C30.0638 27.6461 30.1081 27.5944 30.1967 27.555C30.6202 27.4565 31.0388 27.326 31.4525 27.1635C31.871 26.9961 32.2724 26.809 32.6565 26.6021C32.6811 26.5874 32.7033 26.5775 32.723 26.5726C32.7476 26.5677 32.7698 26.5652 32.7895 26.5652C32.8239 26.5652 32.8412 26.5775 32.8412 26.6021V27.4664C32.8412 27.5255 32.8535 27.555 32.8781 27.555C33.144 27.23 33.4616 26.9986 33.831 26.8607C34.2003 26.7228 34.5943 26.6538 35.0128 26.6538C35.3379 26.6538 35.6358 26.7055 35.9066 26.809C36.1824 26.9074 36.4335 27.0453 36.6601 27.2226C36.8866 27.3999 37.0885 27.6116 37.2658 27.8579C37.448 28.0992 37.608 28.3651 37.7459 28.6556C37.8493 28.8772 37.9158 29.1111 37.9454 29.3574C37.9749 29.5987 37.9897 29.8424 37.9897 30.0886C37.9897 30.6057 37.901 31.0711 37.7238 31.4847C37.5514 31.8984 37.3101 32.2529 36.9999 32.5484C36.6896 32.839 36.3227 33.063 35.8992 33.2206C35.4757 33.3733 35.0178 33.4496 34.5253 33.4496C34.4465 33.4496 34.3579 33.4422 34.2594 33.4274C34.1609 33.4077 34.06 33.3856 33.9565 33.3609C33.8531 33.3314 33.7473 33.2994 33.6389 33.2649C33.5306 33.2304 33.4296 33.1984 33.3361 33.1689C33.2622 33.1443 33.208 33.132 33.1736 33.132C33.1046 33.132 33.0701 33.1664 33.0701 33.2354V36.6702C33.0701 36.749 33.112 36.7884 33.1957 36.7884C33.3188 36.7884 33.4469 36.7785 33.5798 36.7588C33.7177 36.744 33.8408 36.7367 33.9492 36.7367C33.9935 36.7367 34.0427 36.7539 34.0969 36.7884C34.1511 36.8278 34.1781 36.8696 34.1781 36.9139C34.1781 36.978 34.1412 37.0247 34.0673 37.0543C33.9984 37.0888 33.9393 37.106 33.8901 37.106H32.3241C32.2748 37.106 32.1788 37.1084 32.036 37.1134C31.8932 37.1183 31.7405 37.1232 31.578 37.1281C31.4205 37.138 31.2727 37.1454 31.1348 37.1503C30.997 37.1552 30.9083 37.1577 30.8689 37.1577C30.8443 37.1577 30.8098 37.1552 30.7655 37.1503C30.7261 37.1454 30.6867 37.1355 30.6473 37.1208C30.6128 37.1109 30.5808 37.0961 30.5513 37.0764C30.5267 37.0567 30.5144 37.0321 30.5144 37.0026C30.5144 36.8893 30.5735 36.8327 30.6916 36.8327H31.4229C31.5214 36.8327 31.6002 36.8228 31.6593 36.8031C31.7233 36.7834 31.7553 36.717 31.7553 36.6037V28.7369C31.7553 28.6827 31.7529 28.6359 31.7479 28.5965C31.743 28.5522 31.7356 28.5054 31.7258 28.4562C31.7061 28.3134 31.6765 28.1903 31.6371 28.0869C31.6027 27.9785 31.551 27.8899 31.482 27.8209C31.418 27.7471 31.3343 27.6929 31.2309 27.6584C31.1275 27.619 30.9994 27.5993 30.8468 27.5993C30.7335 27.5993 30.6252 27.624 30.5217 27.6732C30.4183 27.7224 30.31 27.7471 30.1967 27.7471C30.1081 27.7471 30.0638 27.7348 30.0638 27.7101ZM40.0801 33.191V29.1432C40.0801 28.9954 40.0776 28.8403 40.0727 28.6778C40.0727 28.5104 40.0629 28.3552 40.0432 28.2124C40.0284 28.0696 40.0013 27.949 39.9619 27.8505C39.9274 27.7471 39.8782 27.6806 39.8142 27.651C39.696 27.5969 39.5507 27.5698 39.3784 27.5698C39.2651 27.5698 39.1592 27.5747 39.0607 27.5846C38.9672 27.5944 38.881 27.5993 38.8022 27.5993C38.7776 27.5993 38.7554 27.5895 38.7357 27.5698C38.716 27.5501 38.7062 27.5304 38.7062 27.5107C38.7062 27.4565 38.7234 27.4245 38.7579 27.4147C38.9105 27.326 39.0657 27.2645 39.2232 27.23C39.3808 27.1955 39.5433 27.1512 39.7108 27.097C39.8585 27.0527 40.0087 27.0059 40.1614 26.9567C40.314 26.9074 40.4544 26.8434 40.5824 26.7646C40.671 26.7203 40.7523 26.6735 40.8262 26.6243C40.9 26.575 40.9936 26.5504 41.1069 26.5504C41.1364 26.5504 41.1635 26.5701 41.1881 26.6095C41.2177 26.644 41.2324 26.6711 41.2324 26.6908V27.097C41.2324 27.1364 41.2324 27.1832 41.2324 27.2374C41.2373 27.2916 41.2398 27.3457 41.2398 27.3999C41.2447 27.4541 41.2497 27.5058 41.2546 27.555C41.2595 27.5993 41.2644 27.6313 41.2694 27.651C41.2743 27.6707 41.2817 27.6855 41.2915 27.6954L41.2989 27.7027C41.3285 27.7027 41.3555 27.688 41.3802 27.6584C41.4048 27.624 41.4319 27.5821 41.4614 27.5329C41.4959 27.4787 41.5328 27.4196 41.5722 27.3556C41.6165 27.2916 41.6732 27.2275 41.7421 27.1635C41.8357 27.07 41.9391 26.9838 42.0523 26.905C42.1705 26.8213 42.2912 26.7499 42.4143 26.6908C42.5423 26.6317 42.6704 26.5849 42.7984 26.5504C42.9314 26.516 43.0619 26.4987 43.1899 26.4987C43.377 26.4987 43.5691 26.516 43.7661 26.5504C43.963 26.58 44.1403 26.6366 44.2979 26.7203C44.4604 26.7991 44.5934 26.9124 44.6968 27.0601C44.8002 27.2078 44.8519 27.395 44.8519 27.6215C44.8519 27.7446 44.8248 27.8579 44.7706 27.9613C44.7214 28.0647 44.6525 28.1533 44.5638 28.2272C44.4801 28.3011 44.3816 28.3602 44.2683 28.4045C44.16 28.4439 44.0467 28.4636 43.9286 28.4636C43.8498 28.4636 43.7661 28.4513 43.6774 28.4266C43.5888 28.402 43.5321 28.3725 43.5075 28.338C43.3549 28.2001 43.249 28.013 43.1899 27.7766C43.1653 27.6437 43.148 27.5329 43.1382 27.4442C43.1333 27.3507 43.1136 27.2792 43.0791 27.23C43.0495 27.1758 42.9978 27.1389 42.924 27.1192C42.8501 27.0946 42.7344 27.0823 42.5768 27.0823C42.4488 27.0823 42.3158 27.1167 42.1779 27.1857C42.045 27.2497 41.9194 27.3334 41.8012 27.4368C41.6879 27.5402 41.5894 27.656 41.5057 27.784C41.422 27.9071 41.3728 28.0278 41.358 28.1459C41.3334 28.2543 41.3186 28.3725 41.3137 28.5005C41.3137 28.6236 41.3137 28.7517 41.3137 28.8846V33.324C41.3432 33.388 41.3974 33.4299 41.4762 33.4496C41.555 33.4644 41.6436 33.4717 41.7421 33.4717C41.7717 33.4717 41.811 33.4717 41.8603 33.4717C41.9145 33.4668 41.9686 33.4644 42.0228 33.4644C42.0819 33.4594 42.1336 33.457 42.1779 33.457C42.2222 33.452 42.2518 33.4496 42.2666 33.4496C42.3798 33.4496 42.4709 33.4644 42.5399 33.4939C42.6137 33.5185 42.6507 33.5752 42.6507 33.6638C42.6507 33.7229 42.6211 33.7771 42.562 33.8263C42.5079 33.8755 42.4537 33.9026 42.3995 33.9076C42.1287 33.8632 41.8504 33.8312 41.5648 33.8115C41.2841 33.7918 41.0034 33.782 40.7227 33.782C40.4273 33.782 40.1515 33.7943 39.8954 33.8189C39.6394 33.8435 39.3734 33.8558 39.0977 33.8558C39.0435 33.8558 38.9795 33.8362 38.9056 33.7968C38.8367 33.7574 38.8022 33.7057 38.8022 33.6416C38.8022 33.6022 38.8145 33.5678 38.8391 33.5382C38.8638 33.5087 38.8933 33.4865 38.9278 33.4717C38.9672 33.452 39.0041 33.4373 39.0386 33.4274C39.078 33.4176 39.11 33.4126 39.1346 33.4126C39.1888 33.4126 39.2405 33.4151 39.2897 33.42C39.3439 33.425 39.4005 33.4299 39.4596 33.4348C39.5039 33.4447 39.5507 33.452 39.6 33.457C39.6492 33.4619 39.696 33.4644 39.7403 33.4644C39.7699 33.4644 39.8019 33.457 39.8363 33.4422C39.8757 33.4274 39.9127 33.4077 39.9471 33.3831C39.9865 33.3536 40.0185 33.324 40.0432 33.2945C40.0678 33.26 40.0801 33.2255 40.0801 33.191ZM51.8323 29.0545H46.7207C46.6666 29.0742 46.6345 29.0964 46.6247 29.121C46.6148 29.1407 46.605 29.1825 46.5951 29.2466C46.5853 29.2909 46.5755 29.3869 46.5656 29.5346C46.5607 29.6824 46.5582 29.8498 46.5582 30.0369C46.5582 30.2241 46.5804 30.4038 46.6247 30.5762C46.669 30.7485 46.7183 30.9184 46.7724 31.0858C46.9793 31.6965 47.3018 32.1618 47.7401 32.4819C48.1833 32.802 48.7644 32.9621 49.4833 32.9621C49.5917 32.9621 49.7099 32.9424 49.8379 32.903C49.9659 32.8636 50.094 32.8143 50.222 32.7552C50.35 32.6912 50.4732 32.6173 50.5913 32.5336C50.7095 32.4499 50.8129 32.3637 50.9016 32.2751C50.9656 32.216 51.0173 32.1495 51.0567 32.0757C51.101 31.9969 51.1552 31.9008 51.2192 31.7876C51.2389 31.7679 51.266 31.7531 51.3005 31.7433C51.3349 31.7285 51.3645 31.7211 51.3891 31.7211C51.4777 31.7211 51.5368 31.7506 51.5664 31.8097C51.6009 31.8639 51.6181 31.9329 51.6181 32.0166C51.6181 32.0412 51.6082 32.0757 51.5885 32.12C51.5738 32.1594 51.5541 32.2012 51.5294 32.2456C51.5097 32.2899 51.4851 32.3342 51.4556 32.3785C51.431 32.4179 51.4113 32.4475 51.3965 32.4672C51.2094 32.7478 50.973 32.9965 50.6874 33.2132C50.4017 33.425 50.0595 33.5973 49.6606 33.7303C49.572 33.7549 49.4193 33.7746 49.2026 33.7894C48.9909 33.8091 48.7594 33.8189 48.5083 33.8189C48.2867 33.8189 48.0577 33.7894 47.8213 33.7303C47.5899 33.6712 47.3634 33.5875 47.1418 33.4791C46.9202 33.3708 46.7133 33.2452 46.5213 33.1024C46.3342 32.9596 46.179 32.802 46.0559 32.6297C45.79 32.2653 45.593 31.8959 45.465 31.5217C45.3419 31.1474 45.2803 30.7288 45.2803 30.2659C45.2803 30.0985 45.2877 29.9409 45.3025 29.7932C45.3222 29.6405 45.3517 29.4928 45.3911 29.35C45.4354 29.2072 45.4896 29.0668 45.5536 28.9289C45.6176 28.7861 45.6964 28.6409 45.79 28.4931C45.9525 28.2223 46.1372 27.9736 46.344 27.7471C46.5508 27.5205 46.7798 27.326 47.031 27.1635C47.2821 27.001 47.553 26.8754 47.8435 26.7868C48.134 26.6982 48.4467 26.6538 48.7816 26.6538C49.0623 26.6538 49.3528 26.6834 49.6532 26.7425C49.9585 26.7966 50.2516 26.9198 50.5322 27.1118C50.6209 27.1758 50.744 27.2743 50.9016 27.4073C51.0592 27.5402 51.2143 27.6904 51.3669 27.8579C51.5196 28.0204 51.6526 28.1927 51.7658 28.3749C51.8791 28.5571 51.9357 28.732 51.9357 28.8994C51.9357 28.9437 51.9259 28.9806 51.9062 29.0102C51.8914 29.0397 51.8668 29.0545 51.8323 29.0545ZM46.9128 28.6556H50.1998C50.2836 28.6556 50.3328 28.6458 50.3476 28.6261C50.3673 28.6015 50.3771 28.5768 50.3771 28.5522C50.3771 28.439 50.3476 28.3208 50.2885 28.1977C50.2343 28.0745 50.1654 27.9588 50.0817 27.8505C50.0029 27.7372 49.9216 27.6363 49.8379 27.5476C49.7542 27.459 49.6828 27.39 49.6237 27.3408C49.4661 27.2078 49.3085 27.1217 49.1509 27.0823C48.9934 27.0429 48.8136 27.0232 48.6117 27.0232C48.528 27.0232 48.4492 27.0256 48.3753 27.0306C48.3064 27.0306 48.2375 27.0355 48.1685 27.0453C48.0996 27.0552 48.0306 27.07 47.9617 27.0897C47.8927 27.1094 47.8164 27.1389 47.7327 27.1783C47.6391 27.2226 47.5357 27.294 47.4225 27.3925C47.3141 27.4861 47.2107 27.5969 47.1122 27.7249C47.0187 27.848 46.9374 27.9834 46.8685 28.1312C46.8044 28.2789 46.7724 28.4242 46.7724 28.567C46.7724 28.6261 46.8192 28.6556 46.9128 28.6556ZM52.859 32.7183C52.859 32.5853 52.8886 32.4548 52.9477 32.3268C53.0117 32.1938 53.0585 32.0707 53.088 31.9575C53.088 31.9378 53.093 31.8984 53.1028 31.8393C53.1176 31.7753 53.1324 31.7088 53.1471 31.6398C53.1668 31.566 53.1841 31.4995 53.1988 31.4404C53.2136 31.3813 53.2235 31.3395 53.2284 31.3148C53.2432 31.2459 53.2776 31.2114 53.3318 31.2114C53.4106 31.2114 53.4524 31.2582 53.4574 31.3518C53.4672 31.4207 53.4697 31.4872 53.4648 31.5512C53.4648 31.6103 53.4721 31.6817 53.4869 31.7654C53.5312 31.9969 53.5928 32.216 53.6716 32.4228C53.7553 32.6247 53.8612 32.8045 53.9892 32.9621C54.1222 33.1196 54.2798 33.2452 54.462 33.3388C54.6491 33.4274 54.8682 33.4717 55.1194 33.4717C55.3016 33.4717 55.4764 33.4447 55.6438 33.3905C55.8113 33.3314 55.959 33.2501 56.087 33.1467C56.22 33.0433 56.3234 32.9153 56.3973 32.7626C56.4761 32.61 56.5155 32.4376 56.5155 32.2456C56.5155 31.9452 56.4613 31.6989 56.3529 31.5069C56.2495 31.3148 56.1116 31.1548 55.9393 31.0268C55.7719 30.8987 55.5773 30.7953 55.3557 30.7165C55.1391 30.6328 54.915 30.554 54.6836 30.4801C54.457 30.4013 54.233 30.3176 54.0114 30.229C53.7947 30.1354 53.6002 30.0148 53.4278 29.867C53.2604 29.7144 53.1225 29.5248 53.0142 29.2983C52.9108 29.0717 52.859 28.7861 52.859 28.4414C52.859 28.2297 52.896 28.0475 52.9698 27.8948C53.0437 27.7372 53.1102 27.6116 53.1693 27.5181C53.2432 27.4048 53.3367 27.2916 53.45 27.1783C53.5632 27.0601 53.6937 26.9567 53.8415 26.8681C53.9892 26.7745 54.1542 26.6982 54.3364 26.6391C54.5235 26.58 54.7254 26.5504 54.9421 26.5504C55.1341 26.5504 55.341 26.5898 55.5626 26.6686C55.7891 26.7425 55.9861 26.8484 56.1535 26.9862C56.2077 27.0306 56.2618 27.0798 56.316 27.134C56.3702 27.1881 56.4244 27.2152 56.4785 27.2152C56.5475 27.2152 56.6041 27.1931 56.6484 27.1487C56.6927 27.0995 56.7371 27.0355 56.7814 26.9567C56.7912 26.9468 56.8011 26.9419 56.8109 26.9419C56.8257 26.937 56.838 26.9345 56.8479 26.9345C56.8626 26.9345 56.8725 26.9493 56.8774 26.9789C56.8873 27.0035 56.8946 27.033 56.8996 27.0675C56.9094 27.097 56.9143 27.129 56.9143 27.1635C56.9193 27.1931 56.9217 27.2152 56.9217 27.23C56.9217 27.2448 56.9143 27.294 56.8996 27.3777C56.8897 27.4615 56.8725 27.5624 56.8479 27.6806C56.8282 27.7939 56.8035 27.917 56.774 28.0499C56.7494 28.178 56.7198 28.2986 56.6853 28.4119C56.6558 28.5202 56.6238 28.6113 56.5893 28.6852C56.5598 28.759 56.5302 28.796 56.5007 28.796C56.4908 28.796 56.481 28.7935 56.4711 28.7886C56.4514 28.7787 56.4416 28.7689 56.4416 28.759C56.4022 28.6901 56.3751 28.631 56.3603 28.5818C56.3456 28.5325 56.3332 28.4857 56.3234 28.4414C56.3185 28.3971 56.3136 28.3528 56.3086 28.3085C56.3086 28.2592 56.3012 28.205 56.2865 28.1459C56.2766 28.1066 56.2668 28.0696 56.2569 28.0351C56.2471 27.9958 56.2348 27.9613 56.22 27.9317C56.156 27.7692 56.0895 27.6363 56.0205 27.5329C55.9516 27.4294 55.8556 27.3236 55.7325 27.2152C55.6488 27.1315 55.5724 27.0675 55.5035 27.0232C55.4395 26.9739 55.3705 26.9395 55.2967 26.9198C55.2228 26.8951 55.1366 26.8804 55.0381 26.8754C54.9396 26.8705 54.819 26.8681 54.6762 26.8681C54.5383 26.8681 54.4103 26.9001 54.2921 26.9641C54.1788 27.0232 54.0803 27.1044 53.9966 27.2078C53.9129 27.3113 53.8464 27.4319 53.7972 27.5698C53.7528 27.7027 53.7307 27.8431 53.7307 27.9908C53.7307 28.2371 53.7824 28.439 53.8858 28.5965C53.9941 28.7492 54.1345 28.8797 54.3068 28.988C54.4841 29.0914 54.6836 29.1801 54.9052 29.254C55.1268 29.3278 55.3508 29.4041 55.5773 29.4829C55.8088 29.5617 56.0353 29.6553 56.2569 29.7636C56.4785 29.867 56.6755 30.0049 56.8479 30.1773C57.0251 30.3447 57.1655 30.5565 57.2689 30.8125C57.3772 31.0637 57.4314 31.3764 57.4314 31.7506C57.4314 31.9969 57.3674 32.2456 57.2393 32.4967C57.1113 32.7429 56.9537 32.9744 56.7666 33.191C56.6829 33.2895 56.5696 33.3806 56.4268 33.4644C56.2889 33.5431 56.1338 33.6121 55.9615 33.6712C55.794 33.7303 55.6167 33.7746 55.4296 33.8041C55.2474 33.8386 55.0677 33.8558 54.8904 33.8558C54.7131 33.8558 54.5087 33.8165 54.2773 33.7377C54.0458 33.6589 53.8242 33.5604 53.6125 33.4422C53.4007 33.324 53.221 33.2009 53.0733 33.0729C52.9305 32.9399 52.859 32.8217 52.859 32.7183ZM58.4434 32.7183C58.4434 32.5853 58.4729 32.4548 58.532 32.3268C58.596 32.1938 58.6428 32.0707 58.6724 31.9575C58.6724 31.9378 58.6773 31.8984 58.6871 31.8393C58.7019 31.7753 58.7167 31.7088 58.7315 31.6398C58.7512 31.566 58.7684 31.4995 58.7832 31.4404C58.7979 31.3813 58.8078 31.3395 58.8127 31.3148C58.8275 31.2459 58.862 31.2114 58.9161 31.2114C58.9949 31.2114 59.0368 31.2582 59.0417 31.3518C59.0515 31.4207 59.054 31.4872 59.0491 31.5512C59.0491 31.6103 59.0565 31.6817 59.0712 31.7654C59.1156 31.9969 59.1771 32.216 59.2559 32.4228C59.3396 32.6247 59.4455 32.8045 59.5735 32.9621C59.7065 33.1196 59.8641 33.2452 60.0463 33.3388C60.2334 33.4274 60.4526 33.4717 60.7037 33.4717C60.8859 33.4717 61.0607 33.4447 61.2282 33.3905C61.3956 33.3314 61.5433 33.2501 61.6714 33.1467C61.8043 33.0433 61.9077 32.9153 61.9816 32.7626C62.0604 32.61 62.0998 32.4376 62.0998 32.2456C62.0998 31.9452 62.0456 31.6989 61.9373 31.5069C61.8339 31.3148 61.696 31.1548 61.5236 31.0268C61.3562 30.8987 61.1617 30.7953 60.9401 30.7165C60.7234 30.6328 60.4993 30.554 60.2679 30.4801C60.0414 30.4013 59.8173 30.3176 59.5957 30.229C59.379 30.1354 59.1845 30.0148 59.0122 29.867C58.8447 29.7144 58.7068 29.5248 58.5985 29.2983C58.4951 29.0717 58.4434 28.7861 58.4434 28.4414C58.4434 28.2297 58.4803 28.0475 58.5542 27.8948C58.628 27.7372 58.6945 27.6116 58.7536 27.5181C58.8275 27.4048 58.921 27.2916 59.0343 27.1783C59.1476 27.0601 59.2781 26.9567 59.4258 26.8681C59.5735 26.7745 59.7385 26.6982 59.9207 26.6391C60.1078 26.58 60.3097 26.5504 60.5264 26.5504C60.7185 26.5504 60.9253 26.5898 61.1469 26.6686C61.3734 26.7425 61.5704 26.8484 61.7378 26.9862C61.792 27.0306 61.8462 27.0798 61.9003 27.134C61.9545 27.1881 62.0087 27.2152 62.0628 27.2152C62.1318 27.2152 62.1884 27.1931 62.2327 27.1487C62.2771 27.0995 62.3214 27.0355 62.3657 26.9567C62.3756 26.9468 62.3854 26.9419 62.3952 26.9419C62.41 26.937 62.4223 26.9345 62.4322 26.9345C62.447 26.9345 62.4568 26.9493 62.4617 26.9789C62.4716 27.0035 62.479 27.033 62.4839 27.0675C62.4937 27.097 62.4987 27.129 62.4987 27.1635C62.5036 27.1931 62.506 27.2152 62.506 27.23C62.506 27.2448 62.4987 27.294 62.4839 27.3777C62.474 27.4615 62.4568 27.5624 62.4322 27.6806C62.4125 27.7939 62.3879 27.917 62.3583 28.0499C62.3337 28.178 62.3041 28.2986 62.2697 28.4119C62.2401 28.5202 62.2081 28.6113 62.1736 28.6852C62.1441 28.759 62.1146 28.796 62.085 28.796C62.0752 28.796 62.0653 28.7935 62.0555 28.7886C62.0358 28.7787 62.0259 28.7689 62.0259 28.759C61.9865 28.6901 61.9594 28.631 61.9447 28.5818C61.9299 28.5325 61.9176 28.4857 61.9077 28.4414C61.9028 28.3971 61.8979 28.3528 61.893 28.3085C61.893 28.2592 61.8856 28.205 61.8708 28.1459C61.8609 28.1066 61.8511 28.0696 61.8412 28.0351C61.8314 27.9958 61.8191 27.9613 61.8043 27.9317C61.7403 27.7692 61.6738 27.6363 61.6049 27.5329C61.5359 27.4294 61.4399 27.3236 61.3168 27.2152C61.2331 27.1315 61.1567 27.0675 61.0878 27.0232C61.0238 26.9739 60.9548 26.9395 60.881 26.9198C60.8071 26.8951 60.7209 26.8804 60.6224 26.8754C60.524 26.8705 60.4033 26.8681 60.2605 26.8681C60.1226 26.8681 59.9946 26.9001 59.8764 26.9641C59.7631 27.0232 59.6646 27.1044 59.5809 27.2078C59.4972 27.3113 59.4307 27.4319 59.3815 27.5698C59.3372 27.7027 59.315 27.8431 59.315 27.9908C59.315 28.2371 59.3667 28.439 59.4701 28.5965C59.5785 28.7492 59.7188 28.8797 59.8912 28.988C60.0684 29.0914 60.2679 29.1801 60.4895 29.254C60.7111 29.3278 60.9351 29.4041 61.1617 29.4829C61.3931 29.5617 61.6196 29.6553 61.8412 29.7636C62.0628 29.867 62.2598 30.0049 62.4322 30.1773C62.6095 30.3447 62.7498 30.5565 62.8532 30.8125C62.9616 31.0637 63.0157 31.3764 63.0157 31.7506C63.0157 31.9969 62.9517 32.2456 62.8237 32.4967C62.6956 32.7429 62.5381 32.9744 62.3509 33.191C62.2672 33.2895 62.154 33.3806 62.0111 33.4644C61.8733 33.5431 61.7181 33.6121 61.5458 33.6712C61.3783 33.7303 61.2011 33.7746 61.0139 33.8041C60.8317 33.8386 60.652 33.8558 60.4747 33.8558C60.2974 33.8558 60.0931 33.8165 59.8616 33.7377C59.6302 33.6589 59.4086 33.5604 59.1968 33.4422C58.9851 33.324 58.8053 33.2009 58.6576 33.0729C58.5148 32.9399 58.4434 32.8217 58.4434 32.7183ZM63.976 33.6416C63.976 33.617 63.9785 33.5801 63.9834 33.5308C63.9932 33.4767 64.0252 33.4496 64.0794 33.4496H64.9363C64.9806 33.4496 65.0274 33.4348 65.0766 33.4053C65.1259 33.3757 65.1505 33.3363 65.1505 33.2871V28.9142C65.1505 28.6827 65.1431 28.4808 65.1283 28.3085C65.1135 28.1361 65.0668 28.0056 64.988 27.917C64.9535 27.8628 64.919 27.8283 64.8846 27.8135C64.855 27.7988 64.8304 27.7865 64.8107 27.7766C64.7861 27.7668 64.759 27.7594 64.7294 27.7545C64.7048 27.7495 64.6753 27.7471 64.6408 27.7471H64.4857C64.3872 27.7471 64.269 27.7495 64.1311 27.7545C63.9932 27.7594 63.8775 27.7668 63.7839 27.7766C63.7642 27.7766 63.7421 27.7742 63.7175 27.7692C63.6928 27.7594 63.6805 27.7446 63.6805 27.7249C63.6805 27.6707 63.6904 27.6387 63.7101 27.6289C63.7347 27.619 63.7642 27.6043 63.7987 27.5846C63.9908 27.5205 64.2001 27.4664 64.4266 27.4221C64.6531 27.3728 64.8698 27.3211 65.0766 27.2669C65.0914 27.2669 65.1234 27.2595 65.1726 27.2448C65.2268 27.2251 65.281 27.2054 65.3351 27.1857C65.3942 27.166 65.4509 27.1463 65.505 27.1266C65.5592 27.1069 65.5986 27.0921 65.6232 27.0823C65.6872 27.0626 65.7513 27.0355 65.8153 27.001C65.8842 26.9616 65.9532 26.9247 66.0221 26.8902C66.091 26.8557 66.1575 26.8262 66.2215 26.8016C66.2905 26.777 66.3594 26.7646 66.4284 26.7646C66.453 26.7646 66.4752 26.777 66.4949 26.8016C66.5195 26.8262 66.5318 26.8607 66.5318 26.905V31.6989C66.5318 31.8762 66.5269 32.024 66.517 32.1421C66.5121 32.2554 66.5047 32.3613 66.4949 32.4598C66.485 32.5533 66.4752 32.6494 66.4653 32.7478C66.4604 32.8414 66.4579 32.9571 66.4579 33.095C66.4579 33.2378 66.4727 33.3339 66.5022 33.3831C66.5367 33.4274 66.6327 33.4496 66.7903 33.4496C66.8445 33.4496 66.9282 33.4447 67.0415 33.4348C67.1547 33.42 67.2508 33.4126 67.3295 33.4126C67.3689 33.4126 67.4108 33.4176 67.4551 33.4274C67.5044 33.4323 67.5487 33.4447 67.5881 33.4644C67.6324 33.4841 67.6669 33.5111 67.6915 33.5456C67.721 33.5801 67.7358 33.6244 67.7358 33.6786C67.7358 33.713 67.7284 33.7426 67.7137 33.7672C67.7038 33.7918 67.6767 33.8041 67.6324 33.8041C67.2729 33.8041 66.9479 33.7992 66.6574 33.7894C66.3717 33.7844 66.1009 33.782 65.8448 33.782C65.4066 33.782 65.052 33.8017 64.7811 33.8411C64.5103 33.8805 64.3182 33.9002 64.205 33.9002C64.0523 33.9002 63.976 33.814 63.976 33.6416ZM64.988 23.9577C64.988 23.8247 65.0126 23.7115 65.0618 23.6179C65.1111 23.5194 65.1751 23.4406 65.2539 23.3815C65.3376 23.3175 65.4336 23.2732 65.542 23.2486C65.6503 23.219 65.7636 23.2043 65.8818 23.2043C65.9901 23.2043 66.0935 23.224 66.192 23.2634C66.2905 23.3028 66.3767 23.3569 66.4505 23.4259C66.5244 23.4948 66.581 23.5761 66.6204 23.6696C66.6647 23.7632 66.6869 23.8617 66.6869 23.9651C66.6869 24.0981 66.6647 24.2138 66.6204 24.3123C66.5761 24.4058 66.5146 24.4822 66.4358 24.5413C66.357 24.6003 66.2634 24.6447 66.1551 24.6742C66.0517 24.6988 65.9384 24.7111 65.8153 24.7111C65.5592 24.7111 65.3573 24.6521 65.2096 24.5339C65.0618 24.4157 64.988 24.2236 64.988 23.9577ZM68.312 30.3324C68.312 29.8104 68.3982 29.3426 68.5705 28.9289C68.7478 28.5104 68.9916 28.1558 69.3018 27.8653C69.612 27.5747 69.9814 27.3507 70.4098 27.1931C70.8382 27.0355 71.3085 26.9567 71.8206 26.9567C71.9339 26.9567 72.0521 26.969 72.1752 26.9936C72.2983 27.0182 72.4214 27.0527 72.5445 27.097C72.6726 27.1364 72.7957 27.1832 72.9139 27.2374C73.037 27.2916 73.1502 27.3482 73.2537 27.4073C73.8397 27.7323 74.2755 28.1533 74.5611 28.6704C74.8516 29.1875 74.9969 29.7784 74.9969 30.4432C74.9969 30.8913 74.9181 31.3222 74.7605 31.7359C74.6079 32.1446 74.374 32.5164 74.0588 32.8513C73.7436 33.1763 73.3842 33.4126 72.9804 33.5604C72.5766 33.7081 72.153 33.782 71.7098 33.782C71.3848 33.782 71.0647 33.7524 70.7496 33.6933C70.4393 33.6342 70.1291 33.4939 69.8189 33.2723C69.3018 32.898 68.9201 32.4721 68.6739 31.9944C68.4326 31.5167 68.312 30.9627 68.312 30.3324ZM69.5751 30.3693C69.5751 30.5663 69.5923 30.7781 69.6268 31.0046C69.6613 31.2311 69.713 31.4601 69.7819 31.6916C69.8558 31.9181 69.9469 32.1397 70.0552 32.3564C70.1685 32.5681 70.3015 32.7577 70.4541 32.9251C70.6068 33.0876 70.7841 33.2181 70.986 33.3166C71.1879 33.4151 71.4119 33.4644 71.6581 33.4644C71.8157 33.4644 71.9536 33.4496 72.0718 33.42C72.19 33.3856 72.2959 33.3388 72.3894 33.2797C72.4879 33.2206 72.5766 33.1517 72.6553 33.0729C72.7391 32.9891 72.8203 32.898 72.8991 32.7996C73.037 32.6223 73.1552 32.4278 73.2537 32.216C73.3522 32.0043 73.4334 31.7876 73.4974 31.566C73.5614 31.3444 73.6058 31.1252 73.6304 30.9086C73.6599 30.687 73.6747 30.4777 73.6747 30.2807C73.6747 30.0936 73.655 29.8867 73.6156 29.6602C73.5762 29.4288 73.5122 29.1973 73.4236 28.9659C73.3398 28.7295 73.2315 28.5005 73.0985 28.2789C72.9656 28.0573 72.8055 27.8603 72.6184 27.688C72.4756 27.5501 72.3229 27.4491 72.1604 27.3851C71.9979 27.3211 71.865 27.2891 71.7616 27.2891C71.5301 27.2891 71.3282 27.3137 71.1558 27.363C70.9835 27.4073 70.8308 27.4762 70.6979 27.5698C70.5649 27.6634 70.4418 27.7815 70.3285 27.9243C70.2202 28.0672 70.1094 28.2346 69.9961 28.4266C69.8041 28.7517 69.6859 29.0742 69.6416 29.3943C69.5973 29.7144 69.5751 30.0394 69.5751 30.3693ZM81.608 33.191V29.025C81.608 28.503 81.4726 28.109 81.2017 27.8431C80.9358 27.5772 80.5689 27.4442 80.1011 27.4442C79.8795 27.4442 79.6776 27.4664 79.4954 27.5107C79.3132 27.555 79.1704 27.619 79.067 27.7027C78.9094 27.8308 78.7789 27.9564 78.6755 28.0795C78.577 28.2026 78.4982 28.3355 78.4391 28.4783C78.38 28.6162 78.3382 28.7714 78.3135 28.9437C78.2889 29.1161 78.2766 29.3155 78.2766 29.542V33.0507C78.2766 33.1787 78.3135 33.2674 78.3874 33.3166C78.4613 33.3609 78.5942 33.3831 78.7863 33.3831H79.2073C79.3846 33.3831 79.4732 33.4397 79.4732 33.553C79.4732 33.7007 79.4018 33.7844 79.259 33.8041H78.8601C78.673 33.8041 78.481 33.7992 78.284 33.7894C78.0919 33.7844 77.8802 33.782 77.6487 33.782C77.5601 33.782 77.4444 33.7844 77.3016 33.7894C77.1637 33.7943 77.0159 33.7968 76.8584 33.7968C76.7008 33.8017 76.5432 33.8066 76.3856 33.8115C76.228 33.8165 76.0901 33.8189 75.972 33.8189C75.8636 33.8189 75.8095 33.7647 75.8095 33.6564C75.8095 33.5333 75.8735 33.4644 76.0015 33.4496C76.164 33.4348 76.3265 33.4274 76.489 33.4274H76.9101C76.9347 33.4274 76.9618 33.4151 76.9913 33.3905C77.0209 33.3659 77.0356 33.3339 77.0356 33.2945V30.1921C77.0356 30.0246 77.0455 29.8203 77.0652 29.579C77.0898 29.3377 77.1021 29.0939 77.1021 28.8477C77.1021 28.7295 77.0972 28.6162 77.0873 28.5079C77.0775 28.3946 77.0603 28.2912 77.0356 28.1977C77.011 28.0992 76.9716 28.013 76.9175 27.9391C76.8682 27.8653 76.8042 27.8062 76.7254 27.7618C76.7008 27.7421 76.6417 27.7274 76.5481 27.7175C76.4546 27.7077 76.3561 27.7027 76.2527 27.7027C76.1689 27.7027 76.0877 27.7077 76.0089 27.7175C75.935 27.7224 75.8858 27.7249 75.8612 27.7249C75.7676 27.7249 75.7085 27.7126 75.6839 27.688C75.6642 27.6683 75.6543 27.651 75.6543 27.6363C75.6543 27.6018 75.6765 27.5747 75.7208 27.555C75.7701 27.5353 75.8365 27.5058 75.9203 27.4664C75.9498 27.4565 75.9966 27.4442 76.0606 27.4294C76.1246 27.4147 76.1886 27.3999 76.2527 27.3851C76.3216 27.3703 76.3832 27.358 76.4373 27.3482C76.4964 27.3334 76.5333 27.326 76.5481 27.326C76.7943 27.262 77.0381 27.1684 77.2794 27.0453C77.5256 26.9222 77.7669 26.8163 78.0033 26.7277C78.0279 26.7129 78.0575 26.7006 78.0919 26.6908C78.1116 26.6858 78.1289 26.6809 78.1436 26.676C78.2224 26.7055 78.2618 26.7696 78.2618 26.8681C78.2618 26.9715 78.2495 27.07 78.2249 27.1635C78.2003 27.2571 78.188 27.3408 78.188 27.4147C78.188 27.459 78.188 27.5255 78.188 27.6141C78.1929 27.6978 78.2003 27.784 78.2101 27.8726C78.22 27.9564 78.2298 28.0327 78.2397 28.1016C78.2544 28.1656 78.2741 28.1977 78.2988 28.1977C78.3185 28.1977 78.3603 28.1583 78.4243 28.0795C78.4933 27.9958 78.5745 27.8973 78.6681 27.784C78.7617 27.6658 78.8651 27.5427 78.9783 27.4147C79.0965 27.2866 79.2147 27.1758 79.3329 27.0823C79.5693 26.9099 79.8032 26.7819 80.0346 26.6982C80.271 26.6144 80.5418 26.5726 80.8472 26.5726C81.246 26.5726 81.5686 26.6268 81.8148 26.7351C82.066 26.8434 82.2629 26.9862 82.4058 27.1635C82.5535 27.3359 82.6569 27.5329 82.716 27.7545C82.7751 27.9711 82.812 28.1878 82.8268 28.4045C82.8366 28.5177 82.844 28.6335 82.849 28.7517C82.8588 28.8649 82.8637 28.9782 82.8637 29.0914V31.8393C82.8637 31.9624 82.8588 32.0757 82.849 32.1791C82.844 32.2776 82.8366 32.3761 82.8268 32.4745C82.8219 32.5681 82.8145 32.6641 82.8046 32.7626C82.7997 32.8562 82.7972 32.9571 82.7972 33.0655C82.7972 33.1246 82.8096 33.1714 82.8342 33.2058C82.8637 33.2354 82.9154 33.2575 82.9893 33.2723C83.0632 33.2871 83.1641 33.2969 83.2922 33.3018C83.4202 33.3068 83.5827 33.3092 83.7797 33.3092C83.8634 33.3092 83.9225 33.3437 83.957 33.4126C83.9964 33.4767 84.016 33.5358 84.016 33.5899C84.016 33.6441 84.0013 33.686 83.9717 33.7155C83.9422 33.7401 83.9052 33.7598 83.8609 33.7746C83.8215 33.7894 83.7772 33.7968 83.728 33.7968C83.6787 33.8017 83.6319 33.8041 83.5876 33.8041C83.3709 33.8041 83.1272 33.7968 82.8563 33.782C82.5904 33.7721 82.3319 33.7672 82.0807 33.7672C82.0019 33.7672 81.9182 33.7697 81.8296 33.7746C81.7459 33.7795 81.6449 33.782 81.5267 33.782C81.4086 33.7869 81.2682 33.7918 81.1057 33.7968C80.9481 33.8017 80.7536 33.8041 80.5222 33.8041C80.4483 33.8041 80.399 33.7844 80.3744 33.745C80.3547 33.7057 80.3449 33.6539 80.3449 33.5899C80.3449 33.4668 80.404 33.3979 80.5222 33.3831C80.5763 33.3782 80.6305 33.3757 80.6847 33.3757C80.7438 33.3757 80.8053 33.3757 80.8693 33.3757C80.9629 33.3757 81.054 33.3733 81.1426 33.3683C81.2313 33.3634 81.3101 33.3536 81.379 33.3388C81.4479 33.324 81.5021 33.3043 81.5415 33.2797C81.5858 33.2551 81.608 33.2255 81.608 33.191ZM84.703 33.6416C84.703 33.617 84.7055 33.5801 84.7104 33.5308C84.7202 33.4767 84.7523 33.4496 84.8064 33.4496H85.6633C85.7076 33.4496 85.7544 33.4348 85.8036 33.4053C85.8529 33.3757 85.8775 33.3363 85.8775 33.2871V28.9142C85.8775 28.6827 85.8701 28.4808 85.8553 28.3085C85.8406 28.1361 85.7938 28.0056 85.715 27.917C85.6805 27.8628 85.646 27.8283 85.6116 27.8135C85.582 27.7988 85.5574 27.7865 85.5377 27.7766C85.5131 27.7668 85.486 27.7594 85.4565 27.7545C85.4318 27.7495 85.4023 27.7471 85.3678 27.7471H85.2127C85.1142 27.7471 84.996 27.7495 84.8581 27.7545C84.7202 27.7594 84.6045 27.7668 84.511 27.7766C84.4913 27.7766 84.4691 27.7742 84.4445 27.7692C84.4199 27.7594 84.4075 27.7446 84.4075 27.7249C84.4075 27.6707 84.4174 27.6387 84.4371 27.6289C84.4617 27.619 84.4913 27.6043 84.5257 27.5846C84.7178 27.5205 84.9271 27.4664 85.1536 27.4221C85.3801 27.3728 85.5968 27.3211 85.8036 27.2669C85.8184 27.2669 85.8504 27.2595 85.8997 27.2448C85.9538 27.2251 86.008 27.2054 86.0622 27.1857C86.1213 27.166 86.1779 27.1463 86.2321 27.1266C86.2862 27.1069 86.3256 27.0921 86.3502 27.0823C86.4143 27.0626 86.4783 27.0355 86.5423 27.001C86.6112 26.9616 86.6802 26.9247 86.7491 26.8902C86.8181 26.8557 86.8845 26.8262 86.9486 26.8016C87.0175 26.777 87.0864 26.7646 87.1554 26.7646C87.18 26.7646 87.2022 26.777 87.2219 26.8016C87.2465 26.8262 87.2588 26.8607 87.2588 26.905V31.6989C87.2588 31.8762 87.2539 32.024 87.244 32.1421C87.2391 32.2554 87.2317 32.3613 87.2219 32.4598C87.212 32.5533 87.2022 32.6494 87.1923 32.7478C87.1874 32.8414 87.1849 32.9571 87.1849 33.095C87.1849 33.2378 87.1997 33.3339 87.2293 33.3831C87.2637 33.4274 87.3598 33.4496 87.5173 33.4496C87.5715 33.4496 87.6552 33.4447 87.7685 33.4348C87.8817 33.42 87.9778 33.4126 88.0566 33.4126C88.096 33.4126 88.1378 33.4176 88.1821 33.4274C88.2314 33.4323 88.2757 33.4447 88.3151 33.4644C88.3594 33.4841 88.3939 33.5111 88.4185 33.5456C88.4481 33.5801 88.4628 33.6244 88.4628 33.6786C88.4628 33.713 88.4554 33.7426 88.4407 33.7672C88.4308 33.7918 88.4037 33.8041 88.3594 33.8041C87.9999 33.8041 87.6749 33.7992 87.3844 33.7894C87.0988 33.7844 86.8279 33.782 86.5718 33.782C86.1336 33.782 85.779 33.8017 85.5082 33.8411C85.2373 33.8805 85.0453 33.9002 84.932 33.9002C84.7793 33.9002 84.703 33.814 84.703 33.6416ZM85.715 23.9577C85.715 23.8247 85.7396 23.7115 85.7889 23.6179C85.8381 23.5194 85.9021 23.4406 85.9809 23.3815C86.0646 23.3175 86.1606 23.2732 86.269 23.2486C86.3773 23.219 86.4906 23.2043 86.6088 23.2043C86.7171 23.2043 86.8205 23.224 86.919 23.2634C87.0175 23.3028 87.1037 23.3569 87.1775 23.4259C87.2514 23.4948 87.308 23.5761 87.3474 23.6696C87.3918 23.7632 87.4139 23.8617 87.4139 23.9651C87.4139 24.0981 87.3918 24.2138 87.3474 24.3123C87.3031 24.4058 87.2416 24.4822 87.1628 24.5413C87.084 24.6003 86.9904 24.6447 86.8821 24.6742C86.7787 24.6988 86.6654 24.7111 86.5423 24.7111C86.2862 24.7111 86.0843 24.6521 85.9366 24.5339C85.7889 24.4157 85.715 24.2236 85.715 23.9577ZM89.231 32.7183C89.231 32.5853 89.2606 32.4548 89.3197 32.3268C89.3837 32.1938 89.4305 32.0707 89.46 31.9575C89.46 31.9378 89.465 31.8984 89.4748 31.8393C89.4896 31.7753 89.5044 31.7088 89.5191 31.6398C89.5388 31.566 89.5561 31.4995 89.5708 31.4404C89.5856 31.3813 89.5955 31.3395 89.6004 31.3148C89.6152 31.2459 89.6496 31.2114 89.7038 31.2114C89.7826 31.2114 89.8244 31.2582 89.8294 31.3518C89.8392 31.4207 89.8417 31.4872 89.8368 31.5512C89.8368 31.6103 89.8441 31.6817 89.8589 31.7654C89.9032 31.9969 89.9648 32.216 90.0436 32.4228C90.1273 32.6247 90.2332 32.8045 90.3612 32.9621C90.4942 33.1196 90.6517 33.2452 90.834 33.3388C91.0211 33.4274 91.2402 33.4717 91.4914 33.4717C91.6736 33.4717 91.8484 33.4447 92.0158 33.3905C92.1833 33.3314 92.331 33.2501 92.459 33.1467C92.592 33.0433 92.6954 32.9153 92.7693 32.7626C92.8481 32.61 92.8874 32.4376 92.8874 32.2456C92.8874 31.9452 92.8333 31.6989 92.7249 31.5069C92.6215 31.3148 92.4836 31.1548 92.3113 31.0268C92.1439 30.8987 91.9493 30.7953 91.7277 30.7165C91.5111 30.6328 91.287 30.554 91.0556 30.4801C90.829 30.4013 90.605 30.3176 90.3834 30.229C90.1667 30.1354 89.9722 30.0148 89.7998 29.867C89.6324 29.7144 89.4945 29.5248 89.3862 29.2983C89.2828 29.0717 89.231 28.7861 89.231 28.4414C89.231 28.2297 89.268 28.0475 89.3418 27.8948C89.4157 27.7372 89.4822 27.6116 89.5413 27.5181C89.6152 27.4048 89.7087 27.2916 89.822 27.1783C89.9352 27.0601 90.0657 26.9567 90.2135 26.8681C90.3612 26.7745 90.5262 26.6982 90.7084 26.6391C90.8955 26.58 91.0974 26.5504 91.3141 26.5504C91.5061 26.5504 91.713 26.5898 91.9346 26.6686C92.1611 26.7425 92.3581 26.8484 92.5255 26.9862C92.5797 27.0306 92.6338 27.0798 92.688 27.134C92.7422 27.1881 92.7963 27.2152 92.8505 27.2152C92.9195 27.2152 92.9761 27.1931 93.0204 27.1487C93.0647 27.0995 93.109 27.0355 93.1534 26.9567C93.1632 26.9468 93.1731 26.9419 93.1829 26.9419C93.1977 26.937 93.21 26.9345 93.2198 26.9345C93.2346 26.9345 93.2445 26.9493 93.2494 26.9789C93.2592 27.0035 93.2666 27.033 93.2716 27.0675C93.2814 27.097 93.2863 27.129 93.2863 27.1635C93.2913 27.1931 93.2937 27.2152 93.2937 27.23C93.2937 27.2448 93.2863 27.294 93.2716 27.3777C93.2617 27.4615 93.2445 27.5624 93.2198 27.6806C93.2002 27.7939 93.1755 27.917 93.146 28.0499C93.1214 28.178 93.0918 28.2986 93.0573 28.4119C93.0278 28.5202 92.9958 28.6113 92.9613 28.6852C92.9318 28.759 92.9022 28.796 92.8727 28.796C92.8628 28.796 92.853 28.7935 92.8431 28.7886C92.8234 28.7787 92.8136 28.7689 92.8136 28.759C92.7742 28.6901 92.7471 28.631 92.7323 28.5818C92.7176 28.5325 92.7052 28.4857 92.6954 28.4414C92.6905 28.3971 92.6855 28.3528 92.6806 28.3085C92.6806 28.2592 92.6732 28.205 92.6585 28.1459C92.6486 28.1066 92.6388 28.0696 92.6289 28.0351C92.6191 27.9958 92.6068 27.9613 92.592 27.9317C92.528 27.7692 92.4615 27.6363 92.3925 27.5329C92.3236 27.4294 92.2276 27.3236 92.1045 27.2152C92.0207 27.1315 91.9444 27.0675 91.8755 27.0232C91.8115 26.9739 91.7425 26.9395 91.6686 26.9198C91.5948 26.8951 91.5086 26.8804 91.4101 26.8754C91.3116 26.8705 91.191 26.8681 91.0482 26.8681C90.9103 26.8681 90.7822 26.9001 90.6641 26.9641C90.5508 27.0232 90.4523 27.1044 90.3686 27.2078C90.2849 27.3113 90.2184 27.4319 90.1692 27.5698C90.1248 27.7027 90.1027 27.8431 90.1027 27.9908C90.1027 28.2371 90.1544 28.439 90.2578 28.5965C90.3661 28.7492 90.5065 28.8797 90.6788 28.988C90.8561 29.0914 91.0556 29.1801 91.2772 29.254C91.4988 29.3278 91.7228 29.4041 91.9493 29.4829C92.1808 29.5617 92.4073 29.6553 92.6289 29.7636C92.8505 29.867 93.0475 30.0049 93.2198 30.1773C93.3971 30.3447 93.5375 30.5565 93.6409 30.8125C93.7492 31.0637 93.8034 31.3764 93.8034 31.7506C93.8034 31.9969 93.7394 32.2456 93.6113 32.4967C93.4833 32.7429 93.3257 32.9744 93.1386 33.191C93.0549 33.2895 92.9416 33.3806 92.7988 33.4644C92.6609 33.5431 92.5058 33.6121 92.3334 33.6712C92.166 33.7303 91.9887 33.7746 91.8016 33.8041C91.6194 33.8386 91.4397 33.8558 91.2624 33.8558C91.0851 33.8558 90.8807 33.8165 90.6493 33.7377C90.4178 33.6589 90.1962 33.5604 89.9845 33.4422C89.7727 33.324 89.593 33.2009 89.4453 33.0729C89.3024 32.9399 89.231 32.8217 89.231 32.7183ZM95.6648 33.2058L95.7904 28.2494C95.7904 28.205 95.7806 28.1509 95.7609 28.0869C95.7461 28.0228 95.7239 27.9613 95.6944 27.9022C95.6648 27.8431 95.6304 27.7939 95.591 27.7545C95.5516 27.7101 95.5122 27.688 95.4728 27.688C95.3792 27.688 95.293 27.6978 95.2142 27.7175C95.1404 27.7372 95.0739 27.7594 95.0148 27.784C94.9557 27.8037 94.904 27.8234 94.8597 27.8431C94.8154 27.8579 94.7809 27.8653 94.7563 27.8653C94.6873 27.8653 94.6529 27.8308 94.6529 27.7618C94.6578 27.7175 94.6775 27.6757 94.712 27.6363C94.7513 27.5969 94.7957 27.5624 94.8449 27.5329C94.8942 27.5033 94.9434 27.4787 94.9926 27.459C95.0419 27.4344 95.0788 27.4171 95.1034 27.4073C95.2709 27.363 95.4235 27.3186 95.5614 27.2743C95.6993 27.2251 95.8323 27.1734 95.9603 27.1192C96.0883 27.065 96.2164 27.0059 96.3444 26.9419C96.4724 26.873 96.6128 26.7966 96.7654 26.7129C96.8295 26.6883 96.8886 26.676 96.9427 26.676C97.0018 26.676 97.0314 26.7031 97.0314 26.7573C97.0314 26.8016 97.0264 26.8631 97.0166 26.9419C97.0067 27.0207 96.9969 27.102 96.987 27.1857C96.9772 27.2694 96.9673 27.3507 96.9575 27.4294C96.9477 27.5033 96.9427 27.5599 96.9427 27.5993V27.7397C96.9427 27.8234 96.9501 27.9047 96.9649 27.9834C96.9846 28.0573 97.0117 28.0942 97.0461 28.0942C97.1003 28.0942 97.1397 28.0598 97.1643 27.9908C97.1939 27.9219 97.248 27.8406 97.3268 27.7471C97.4647 27.5796 97.6272 27.4221 97.8144 27.2743C98.0015 27.1217 98.2009 26.9887 98.4127 26.8754C98.6244 26.7622 98.8436 26.6711 99.0701 26.6021C99.3015 26.5332 99.5256 26.4987 99.7423 26.4987C99.8211 26.4987 99.9122 26.5061 100.016 26.5209C100.124 26.5307 100.237 26.5652 100.355 26.6243C100.474 26.6785 100.594 26.7622 100.717 26.8754C100.84 26.9838 100.959 27.134 101.072 27.326C101.092 27.3703 101.106 27.4122 101.116 27.4516C101.131 27.4861 101.143 27.523 101.153 27.5624C101.163 27.6018 101.175 27.6486 101.19 27.7027C101.205 27.7569 101.225 27.8283 101.249 27.917C101.284 28.0204 101.318 28.0721 101.353 28.0721C101.402 28.0721 101.439 28.0204 101.463 27.917C101.498 27.784 101.554 27.6683 101.633 27.5698C101.712 27.4664 101.766 27.3999 101.796 27.3703C102.052 27.0847 102.342 26.8508 102.667 26.6686C102.997 26.4864 103.364 26.3953 103.768 26.3953C103.985 26.3953 104.179 26.4396 104.352 26.5283C104.529 26.612 104.684 26.7252 104.817 26.8681C104.95 27.0109 105.063 27.1758 105.157 27.363C105.25 27.5501 105.327 27.7446 105.386 27.9465C105.445 28.1435 105.487 28.3429 105.511 28.5448C105.541 28.7467 105.556 28.9339 105.556 29.1062V31.7506C105.556 31.9722 105.543 32.1889 105.519 32.4007C105.494 32.6075 105.482 32.7946 105.482 32.9621C105.482 33.1295 105.565 33.2206 105.733 33.2354H106.568C106.612 33.2354 106.641 33.2551 106.656 33.2945C106.661 33.3289 106.666 33.3585 106.671 33.3831C106.676 33.4077 106.678 33.4299 106.678 33.4496C106.678 33.4841 106.676 33.5185 106.671 33.553C106.666 33.5875 106.661 33.617 106.656 33.6416C106.646 33.6761 106.592 33.6958 106.494 33.7007C106.395 33.7057 106.292 33.7081 106.183 33.7081H105.482C105.231 33.7081 105.014 33.713 104.832 33.7229C104.654 33.7278 104.494 33.7352 104.352 33.745C104.214 33.7549 104.083 33.7647 103.96 33.7746C103.842 33.7795 103.721 33.782 103.598 33.782H103.303C103.15 33.782 103.074 33.713 103.074 33.5752C103.074 33.521 103.081 33.4791 103.096 33.4496C103.116 33.42 103.138 33.3954 103.162 33.3757C103.177 33.3659 103.212 33.356 103.266 33.3462C103.325 33.3314 103.386 33.3191 103.45 33.3092C103.519 33.2994 103.583 33.292 103.642 33.2871C103.702 33.2772 103.743 33.2723 103.768 33.2723C103.793 33.2625 103.817 33.2575 103.842 33.2575C103.867 33.2575 103.889 33.2575 103.908 33.2575H104.049C104.132 33.2575 104.174 33.2107 104.174 33.1172V28.8255C104.174 28.6285 104.157 28.4414 104.123 28.2641C104.088 28.0869 104.031 27.9317 103.953 27.7988C103.879 27.6658 103.775 27.5624 103.642 27.4885C103.514 27.4097 103.354 27.3703 103.162 27.3703C102.877 27.3703 102.618 27.4122 102.387 27.4959C102.16 27.5796 101.968 27.6954 101.811 27.8431C101.653 27.9908 101.53 28.1656 101.441 28.3675C101.357 28.5645 101.316 28.7812 101.316 29.0176V33.0802C101.316 33.1393 101.333 33.1861 101.367 33.2206C101.402 33.2551 101.444 33.2846 101.493 33.3092C101.542 33.3289 101.594 33.3437 101.648 33.3536C101.707 33.3634 101.756 33.3708 101.796 33.3757C101.865 33.3806 101.921 33.3856 101.966 33.3905C102.01 33.3954 102.052 33.3979 102.091 33.3979C102.131 33.3979 102.163 33.3979 102.187 33.3979C102.212 33.3979 102.237 33.4028 102.261 33.4126C102.305 33.4323 102.33 33.457 102.335 33.4865C102.345 33.5161 102.35 33.5505 102.35 33.5899C102.35 33.6441 102.33 33.686 102.291 33.7155C102.251 33.7401 102.202 33.7598 102.143 33.7746C102.089 33.7844 102.03 33.7894 101.966 33.7894C101.907 33.7943 101.855 33.7968 101.811 33.7968C101.806 33.7968 101.769 33.7943 101.7 33.7894C101.636 33.7894 101.547 33.7894 101.434 33.7894C101.321 33.7894 101.19 33.7869 101.042 33.782C100.895 33.782 100.737 33.782 100.57 33.782C100.456 33.782 100.333 33.782 100.2 33.782C100.067 33.7869 99.9368 33.7894 99.8088 33.7894C99.6856 33.7943 99.5724 33.7968 99.469 33.7968C99.3656 33.8017 99.2892 33.8041 99.24 33.8041C99.1513 33.8041 99.0652 33.7918 98.9814 33.7672C98.8977 33.7426 98.8559 33.6786 98.8559 33.5752C98.8559 33.452 98.9347 33.3856 99.0922 33.3757C99.1316 33.3659 99.1686 33.3609 99.203 33.3609C99.2375 33.3609 99.2794 33.3609 99.3286 33.3609C99.3926 33.3609 99.4591 33.3585 99.5281 33.3536C99.597 33.3437 99.661 33.3314 99.7201 33.3166C99.7792 33.2969 99.826 33.2723 99.8605 33.2428C99.8999 33.2083 99.9196 33.1664 99.9196 33.1172L100.008 28.6556C100.008 28.5424 99.991 28.4316 99.9565 28.3232C99.9171 28.205 99.8605 28.0893 99.7866 27.9761C99.7127 27.8628 99.6241 27.7618 99.5207 27.6732C99.4222 27.5846 99.3114 27.5132 99.1883 27.459C99.0652 27.4048 98.9347 27.3777 98.7968 27.3777C98.6244 27.3777 98.4545 27.4048 98.2871 27.459C98.1197 27.5082 97.9645 27.5821 97.8217 27.6806C97.6789 27.7742 97.5484 27.8874 97.4302 28.0204C97.317 28.1484 97.2259 28.2937 97.1569 28.4562C97.1274 28.5448 97.0978 28.6359 97.0683 28.7295C97.0437 28.8181 97.0314 28.9142 97.0314 29.0176L96.928 33.095C96.928 33.1787 96.9378 33.2526 96.9575 33.3166C96.9772 33.3806 97.0191 33.4126 97.0831 33.4126H97.9547C97.999 33.4126 98.0236 33.4274 98.0286 33.457C98.0384 33.4865 98.0433 33.5185 98.0433 33.553C98.0433 33.6072 98.0286 33.6638 97.999 33.7229C97.9695 33.7771 97.9153 33.8041 97.8365 33.8041C97.6198 33.8041 97.4056 33.8017 97.1939 33.7968C96.9821 33.7968 96.7827 33.7943 96.5956 33.7894C96.4084 33.7894 96.241 33.7869 96.0933 33.782C95.9504 33.782 95.8421 33.782 95.7682 33.782C95.6402 33.782 95.4974 33.7844 95.3398 33.7894C95.1872 33.7992 95.0173 33.8041 94.8301 33.8041H94.6307C94.5962 33.8041 94.5667 33.7894 94.5421 33.7598C94.5224 33.7303 94.5125 33.6958 94.5125 33.6564C94.5125 33.6121 94.5248 33.5727 94.5494 33.5382C94.579 33.4988 94.6233 33.4742 94.6824 33.4644C94.7563 33.4447 94.8277 33.4348 94.8966 33.4348C94.9656 33.4299 95.037 33.4274 95.1108 33.4274H95.3841C95.4629 33.4274 95.5294 33.4126 95.5836 33.3831C95.6377 33.3536 95.6648 33.2945 95.6648 33.2058ZM113.792 29.0545H108.68C108.626 29.0742 108.594 29.0964 108.584 29.121C108.574 29.1407 108.564 29.1825 108.555 29.2466C108.545 29.2909 108.535 29.3869 108.525 29.5346C108.52 29.6824 108.518 29.8498 108.518 30.0369C108.518 30.2241 108.54 30.4038 108.584 30.5762C108.628 30.7485 108.678 30.9184 108.732 31.0858C108.939 31.6965 109.261 32.1618 109.7 32.4819C110.143 32.802 110.724 32.9621 111.443 32.9621C111.551 32.9621 111.669 32.9424 111.797 32.903C111.925 32.8636 112.053 32.8143 112.181 32.7552C112.309 32.6912 112.433 32.6173 112.551 32.5336C112.669 32.4499 112.772 32.3637 112.861 32.2751C112.925 32.216 112.977 32.1495 113.016 32.0757C113.06 31.9969 113.115 31.9008 113.179 31.7876C113.198 31.7679 113.225 31.7531 113.26 31.7433C113.294 31.7285 113.324 31.7211 113.349 31.7211C113.437 31.7211 113.496 31.7506 113.526 31.8097C113.56 31.8639 113.578 31.9329 113.578 32.0166C113.578 32.0412 113.568 32.0757 113.548 32.12C113.533 32.1594 113.514 32.2012 113.489 32.2456C113.469 32.2899 113.445 32.3342 113.415 32.3785C113.39 32.4179 113.371 32.4475 113.356 32.4672C113.169 32.7478 112.932 32.9965 112.647 33.2132C112.361 33.425 112.019 33.5973 111.62 33.7303C111.531 33.7549 111.379 33.7746 111.162 33.7894C110.95 33.8091 110.719 33.8189 110.468 33.8189C110.246 33.8189 110.017 33.7894 109.781 33.7303C109.549 33.6712 109.323 33.5875 109.101 33.4791C108.88 33.3708 108.673 33.2452 108.481 33.1024C108.294 32.9596 108.138 32.802 108.015 32.6297C107.749 32.2653 107.552 31.8959 107.424 31.5217C107.301 31.1474 107.24 30.7288 107.24 30.2659C107.24 30.0985 107.247 29.9409 107.262 29.7932C107.282 29.6405 107.311 29.4928 107.351 29.35C107.395 29.2072 107.449 29.0668 107.513 28.9289C107.577 28.7861 107.656 28.6409 107.749 28.4931C107.912 28.2223 108.097 27.9736 108.303 27.7471C108.51 27.5205 108.739 27.326 108.99 27.1635C109.242 27.001 109.512 26.8754 109.803 26.7868C110.093 26.6982 110.406 26.6538 110.741 26.6538C111.022 26.6538 111.312 26.6834 111.613 26.7425C111.918 26.7966 112.211 26.9198 112.492 27.1118C112.58 27.1758 112.703 27.2743 112.861 27.4073C113.019 27.5402 113.174 27.6904 113.326 27.8579C113.479 28.0204 113.612 28.1927 113.725 28.3749C113.839 28.5571 113.895 28.732 113.895 28.8994C113.895 28.9437 113.885 28.9806 113.866 29.0102C113.851 29.0397 113.826 29.0545 113.792 29.0545ZM108.872 28.6556H112.159C112.243 28.6556 112.292 28.6458 112.307 28.6261C112.327 28.6015 112.337 28.5768 112.337 28.5522C112.337 28.439 112.307 28.3208 112.248 28.1977C112.194 28.0745 112.125 27.9588 112.041 27.8505C111.962 27.7372 111.881 27.6363 111.797 27.5476C111.714 27.459 111.642 27.39 111.583 27.3408C111.426 27.2078 111.268 27.1217 111.11 27.0823C110.953 27.0429 110.773 27.0232 110.571 27.0232C110.487 27.0232 110.409 27.0256 110.335 27.0306C110.266 27.0306 110.197 27.0355 110.128 27.0453C110.059 27.0552 109.99 27.07 109.921 27.0897C109.852 27.1094 109.776 27.1389 109.692 27.1783C109.599 27.2226 109.495 27.294 109.382 27.3925C109.274 27.4861 109.17 27.5969 109.072 27.7249C108.978 27.848 108.897 27.9834 108.828 28.1312C108.764 28.2789 108.732 28.4242 108.732 28.567C108.732 28.6261 108.779 28.6556 108.872 28.6556Z" fill="#F5F5F5"/>
</g>
<defs>
<filter id="filter0_d_1278_493" x="1.95752" y="6.10083" width="115.72" height="38.6208" filterUnits="userSpaceOnUse" color-interpolation-filters="sRGB">
<feFlood flood-opacity="0" result="BackgroundImageFix"/>
<feColorMatrix in="SourceAlpha" type="matrix" values="0 0 0 0 0 0 0 0 0 0 0 0 0 0 0 0 0 0 127 0" result="hardAlpha"/>
<feOffset dy="3.78198"/>
<feGaussianBlur stdDeviation="1.89099"/>
<feComposite in2="hardAlpha" operator="out"/>
<feColorMatrix type="matrix" values="0 0 0 0 0 0 0 0 0 0 0 0 0 0 0 0 0 0 0.15 0"/>
<feBlend mode="normal" in2="BackgroundImageFix" result="effect1_dropShadow_1278_493"/>
<feBlend mode="normal" in="SourceGraphic" in2="effect1_dropShadow_1278_493" result="shape"/>
</filter>
</defs>
</svg>
