<svg width="58" height="57" viewBox="0 0 58 57" fill="none" xmlns="http://www.w3.org/2000/svg">
<g clip-path="url(#clip0_1017_1131)">
<path d="M53.7015 15.4186C53.4214 14.2999 52.8512 13.2749 52.0483 12.4472C51.2454 11.6194 50.2382 11.0182 49.1286 10.7043C45.0743 9.71429 28.8572 9.71429 28.8572 9.71429C28.8572 9.71429 12.64 9.71429 8.58574 10.7986C7.4761 11.1125 6.46897 11.7137 5.66605 12.5415C4.86314 13.3692 4.29288 14.3942 4.01288 15.5129C3.27089 19.6274 2.90794 23.8013 2.92859 27.9822C2.90214 32.1945 3.26512 36.4002 4.01288 40.5457C4.32157 41.6296 4.9046 42.6156 5.70565 43.4084C6.50669 44.2012 7.49867 44.774 8.58574 45.0714C12.64 46.1557 28.8572 46.1557 28.8572 46.1557C28.8572 46.1557 45.0743 46.1557 49.1286 45.0714C50.2382 44.7575 51.2454 44.1563 52.0483 43.3285C52.8512 42.5008 53.4214 41.4758 53.7015 40.3571C54.4377 36.2736 54.8006 32.1315 54.7857 27.9822C54.8122 23.7698 54.4492 19.5641 53.7015 15.4186V15.4186Z" stroke="white" stroke-width="4.71429" stroke-linecap="round" stroke-linejoin="round"/>
<path d="M23.5536 35.69L37.1072 27.9822L23.5536 20.2743V35.69Z" stroke="white" stroke-width="4.71429" stroke-linecap="round" stroke-linejoin="round"/>
</g>
<defs>
<clipPath id="clip0_1017_1131">
<rect width="56.5714" height="56.5714" fill="white" transform="translate(0.571411 0.285706)"/>
</clipPath>
</defs>
</svg>
